<?xml version="1.0" encoding="utf-8"?>
<svg viewBox="0 0 500 500" xmlns="http://www.w3.org/2000/svg">
  <g transform="matrix(0.254436, 0, 0, 0.254436, -16.688305, 369.353399)">
    <g>
      <path d="m319.34 327.379v172.914l115-10v-45l-4.46-7 4.46-8v-45l-4-7 4-8v-22.914c0-3.823.335-7.139.859-10z" fill="#f4daa7"/>
      <path d="m329.34 445.292h105v-15h-105v-45h105v-15h-105v-32.914h105.859c1.968-10.734 6.641-15 6.641-15l-68.915-65-66.085 65s7.5 6.835 7.5 25v157.914h120v-15h-105z" fill="#f0c87e"/>
      <path d="m405.152 132.379-8.37-17 8.37-13s-23.171-32.39-30.813-81.879c-7.641 49.489-30.812 81.879-30.812 81.879l8.37 13-8.37 17-29.188 30 60 15 60-15z" fill="#5f6c75"/>
      <path d="m441.84 192.379h-7.5l-10-7.56 10-7.44v-15h-105l-15 30-10 125 145-10v-107.5c0-4.142-3.358-7.5-7.5-7.5z" fill="#f8e7c7"/>
      <path d="m314.34 304.628v-112.249h-7.5c-4.142 0-7.5 3.358-7.5 7.5v115c0 4.142 3.358 7.5 7.5 7.5h135c4.142 0 7.5-3.358 7.5-7.5v-7.5h-132.25c-1.519 0-2.75-1.232-2.75-2.751z" fill="#f4daa7"/>
      <path d="m329.34 162.379h-15v30h120v-15h-101.5c-1.933 0-3.5-1.567-3.5-3.5z" fill="#f4daa7"/>
      <path d="m405.152 117.379-53.255 5 6.63-20h46.625z" fill="#f8e7c7"/>
      <path d="m358.527 102.379h-15v30h61.625v-15h-43.125c-1.933 0-3.5-1.567-3.5-3.5z" fill="#f4daa7"/>
      <path d="m411.84 292.379h-75c-4.142 0-7.5-3.358-7.5-7.5v-75c0-4.142 3.358-7.5 7.5-7.5h75c4.142 0 7.5 3.358 7.5 7.5v75c0 4.142-3.358 7.5-7.5 7.5z" fill="#cf9875"/>
      <path d="m374.34 202.379c-9.617 0-18.522 3.026-25.835 8.165-5.139 7.313-12.165 20.218-12.165 29.835 0 24.853 20.147 45 45 45 9.617 0 22.522-7.026 29.835-12.165 5.139-7.313 8.165-16.218 8.165-25.835 0-24.853-20.147-45-45-45z" fill="#e9edf1"/>
      <path d="m340.34 236.379c0-9.617 3.027-18.522 8.165-25.835-11.586 8.141-19.165 21.599-19.165 36.835 0 24.853 20.147 45 45 45 15.236 0 28.694-7.579 36.835-19.165-7.313 5.139-16.218 8.165-25.835 8.165-24.853 0-45-20.147-45-45z" fill="#c8d2dc"/>
      <path d="m264.34 445.292s-16.92-32.39-22.5-81.879c-5.58 49.489-22.5 81.879-22.5 81.879l22.5 11.323z" fill="#5f6c75"/>
      <path d="m148.452 445.292s-16.92-32.39-22.5-81.879c-5.58 49.489-22.5 81.879-22.5 81.879l22.5 11.323z" fill="#5f6c75"/>
      <path d="m118.452 505.292h31.437l33.697-7.441 50.754 7.441h29.999l.001-60h-30l-10.103 49.619-75.785-19.619v-30h-30l-10 30.124z" fill="#f8e7c7"/>
      <path d="m118.452 445.292v60h-15v-60zm100.888 0v30l-7.377 3-7.623-3h-55.888v30h55.888l5.85-2 9.15 2h15v-60z" fill="#f4daa7"/>
      <path d="m204.34 475.292h15v30h-15z" fill="#f0c87e"/>
    </g>
    <g>
      <g>
        <path d="m434.34 512.792c-4.143 0-7.5-3.358-7.5-7.5v-52.5h-25v52.5c0 4.142-3.357 7.5-7.5 7.5s-7.5-3.358-7.5-7.5v-52.5h-25v52.5c0 4.142-3.357 7.5-7.5 7.5s-7.5-3.358-7.5-7.5v-52.5h-25v52.5c0 4.142-3.357 7.5-7.5 7.5h-50.001c-1.989 0-3.896-.79-5.304-2.197-1.406-1.407-2.196-3.314-2.196-5.303l.001-52.5h-30l-.001 52.5c0 4.142-3.358 7.5-7.5 7.5-4.143 0-7.5-3.358-7.5-7.5v-22.5h-20.443v22.5c0 4.142-3.357 7.5-7.5 7.5s-7.5-3.358-7.5-7.5v-22.5h-20.443v22.5c0 4.142-3.357 7.5-7.5 7.5s-7.5-3.358-7.5-7.5v-52.5h-30v52.5c0 4.142-3.357 7.5-7.5 7.5h-40c-4.143 0-7.5-3.358-7.5-7.5s3.357-7.5 7.5-7.5h32.5v-52.5c0-1.209.292-2.401.853-3.473.158-.306 16.262-31.716 21.647-78.831v-12.575c0-4.142 3.357-7.5 7.5-7.5s7.5 3.358 7.5 7.5v12.576c5.386 47.115 21.488 78.525 21.651 78.837.555 1.068.849 2.262.849 3.466v22.5h20.443v-22.5c0-4.142 3.357-7.5 7.5-7.5s7.5 3.358 7.5 7.5v22.5h20.444v-22.5c0-.007 0-.015 0-.022 0-.001 0-.002 0-.004 0-.006 0-.013 0-.02 0-.002 0-.005 0-.007 0-.004 0-.009 0-.014s0-.011 0-.017c0-.001 0-.002.001-.003.014-1.255.336-2.436.895-3.47.929-1.832 16.355-32.832 21.604-78.747v-12.576c0-4.142 3.357-7.5 7.5-7.5s7.5 3.358 7.5 7.5v12.575c5.244 45.881 20.652 76.869 21.606 78.75.562 1.042.884 2.232.894 3.497v.002.012.018.005.021l-.001 52.5h35.001v-150.413c0-10.015-2.533-15.596-4.07-18.061-6.3-1.778-10.93-7.578-10.93-14.439v-115c0-8.271 6.729-15 15-15v-22.5c0-1.954.762-3.83 2.124-5.23l27.063-27.816v-26.954c0-1.565.489-3.091 1.4-4.364.215-.303 22.071-31.446 29.412-78.096v-12.419c0-4.142 3.357-7.5 7.5-7.5s7.5 3.358 7.5 7.5v12.419c7.34 46.65 29.196 77.793 29.417 78.104.903 1.27 1.395 2.797 1.395 4.356v26.954l27.064 27.816c1.361 1.4 2.124 3.276 2.124 5.23v22.5c8.271 0 15 6.729 15 15v27.5c0 4.142-3.357 7.5-7.5 7.5s-7.5-3.358-7.5-7.5v-27.5h-21.318c-4.143 0-7.5-3.358-7.5-7.5s3.357-7.5 7.5-7.5h6.318v-15h-105v15h6.317c4.143 0 7.5 3.358 7.5 7.5s-3.357 7.5-7.5 7.5h-21.316v115h135v-57.5c0-4.142 3.357-7.5 7.5-7.5s7.5 3.358 7.5 7.5v57.5c0 6.861-4.63 12.661-10.93 14.439-1.537 2.465-4.07 8.046-4.07 18.061v157.914c0 4.142-3.357 7.499-7.5 7.499zm-32.5-75h25v-45h-25v4.56c0 4.142-3.357 7.5-7.5 7.5s-7.5-3.358-7.5-7.5v-4.56h-25v45h25v-10.44c0-4.142 3.357-7.5 7.5-7.5s7.5 3.358 7.5 7.5zm-80 0h25v-45h-25zm-90.903 0h21.806c-3.108-7.593-7.209-18.879-10.902-33.154-3.695 14.276-7.795 25.562-10.904 33.154zm-115.888 0h21.807c-3.109-7.593-7.209-18.88-10.903-33.155-3.695 14.276-7.795 25.563-10.904 33.155zm286.791-60h25v-30.414c0-7.228 1.071-13.002 2.513-17.5h-110.026c1.441 4.498 2.513 10.272 2.513 17.5v30.414h25v-25.414c0-4.142 3.357-7.5 7.5-7.5s7.5 3.358 7.5 7.5v25.414h25v-25.414c0-4.142 3.357-7.5 7.5-7.5s7.5 3.358 7.5 7.5zm45.213-50.022c-.001 0-.001 0 0 0zm-114.952-172.891h84.478l-14.594-15h-7.645c-4.143 0-7.5-3.358-7.5-7.5s3.357-7.5 7.5-7.5h3.312v-15h-46.624v15h13.313c4.143 0 7.5 3.358 7.5 7.5s-3.357 7.5-7.5 7.5h-17.646zm24.805-60h34.868c-5.066-9.146-11.874-23.246-17.434-41.188-5.56 17.942-12.368 32.041-17.434 41.188zm17.434 205c-17.39 0-32.831-8.498-42.391-21.56-.137-.162-.269-.331-.394-.507-.121-.169-.233-.342-.338-.518-5.91-8.493-9.378-18.807-9.378-29.916 0-28.949 23.552-52.5 52.5-52.5s52.5 23.551 52.5 52.5-23.551 52.501-52.499 52.501zm-25.579-25.102c6.705 6.263 15.702 10.102 25.579 10.102 20.678 0 37.5-16.822 37.5-37.5 0-18.109-12.904-33.262-30-36.747v22.207l.973-.692c3.379-2.402 8.059-1.61 10.459 1.764 2.401 3.375 1.611 8.058-1.764 10.458l-9.668 6.877v6.132c0 4.142-3.357 7.5-7.5 7.5-2.754 0-5.162-1.485-6.466-3.697zm18.079-64.145c-17.096 3.485-30 18.637-30 36.747 0 5.402 1.148 10.541 3.213 15.185l26.787-19.055z"/>
      </g>
    </g>
  </g>
  <path d="M 73.847 341.782 L 71.696 343.973 L 73.847 345.766 L 73.847 347.758 C 73.847 351.065 71.178 353.735 67.871 353.735 L 11.824 353.735 C 8.517 353.735 5.847 351.065 5.847 347.758 L 5.847 341.782 L 8.836 339.71 L 5.847 337.797 L 5.847 311.899 C 5.847 308.591 8.517 305.922 11.824 305.922 L 17.801 305.922 C 17.801 306.241 19.833 308.154 21.785 309.986 L 21.785 313.891 L 64.166 313.891 L 69.305 317.875 L 70.62 321.86 L 65.201 330.984 L 73.847 337.797 Z M 73.847 341.782" fill="#e63950"/>
  <g fill="#cc2e43" transform="matrix(0.132813, 0, 0, 0.132813, 5.84754, 305.922002)">
    <path d="m512 270-16.199219 16.5 16.199219 13.5v15c0 24.898438-20.097656 45-45 45h-272v-300h244.101562l38.699219 30 9.898438 30-40.800781 68.699219 65.101562 51.300781zm0 0"/>
    <path d="m477.800781 90h-372.800781c-8.402344 0-15-6.601562-15-15v-75h347c6.300781 0 12.300781 4.199219 14.097656 10.199219l6.601563 19.800781-17.699219 15.597656 27.902344 14.402344zm0 0"/>
    <path d="m512 210v30h-105c-3.898438 0-7.800781-1.5-10.5-4.5l-25.800781-25.5h-370.699219v-90h487.699219l9.902343 30-33.601562 36.300781zm0 0"/>
  </g>
  <path d="M 69.305 317.875 L 31.746 317.875 L 31.746 305.922 L 63.887 305.922 C 64.723 305.922 65.52 306.48 65.759 307.277 L 66.636 309.907 L 64.285 311.978 L 67.991 313.891 Z M 69.305 317.875" fill="#ae2538"/>
  <path d="M 73.847 333.813 L 73.847 337.797 L 59.902 337.797 C 59.384 337.797 58.866 337.598 58.508 337.2 L 55.081 333.813 L 31.746 333.813 L 31.746 321.86 L 70.62 321.86 L 71.935 325.844 L 67.472 330.665 Z M 73.847 333.813" fill="#ae2538"/>
  <path d="M 73.847 341.782 L 73.847 345.766 L 67.871 345.766 C 66.755 345.766 65.879 344.889 65.879 343.774 C 65.879 342.658 66.755 341.782 67.871 341.782 Z M 73.847 341.782" fill="#c6e2e7"/>
  <path d="M 49.941 339.789 C 49.941 340.905 49.065 341.782 47.949 341.782 L 5.847 341.782 L 5.847 337.797 L 47.949 337.797 C 49.065 337.797 49.941 338.673 49.941 339.789 Z M 49.941 339.789" fill="#ffa78f"/>
  <path d="M 19.793 345.766 C 16.485 345.766 13.816 348.435 13.816 351.743 C 13.816 355.001 16.478 357.719 19.793 357.719 C 22.401 357.719 24.66 355.988 25.411 353.735 C 25.649 353.097 25.769 352.46 25.769 351.743 C 25.769 348.383 22.998 345.766 19.793 345.766 Z M 19.793 345.766" fill="#4a696f"/>
  <path d="M 19.793 353.735 C 18.675 353.735 17.801 352.797 17.801 351.743 C 17.801 350.643 18.693 349.75 19.793 349.75 C 20.888 349.75 21.785 350.702 21.785 351.743 C 21.785 352.789 20.875 353.735 19.793 353.735 Z M 19.793 353.735" fill="#deecf1"/>
  <path d="M 31.746 345.766 C 28.558 345.766 25.769 348.396 25.769 351.743 C 25.769 352.46 25.889 353.097 26.128 353.735 C 26.885 356.006 29.156 357.719 31.746 357.719 C 35.053 357.719 37.722 355.01 37.722 351.743 C 37.722 348.435 35.053 345.766 31.746 345.766 Z M 31.746 345.766" fill="#4a696f"/>
  <path d="M 59.902 345.766 C 56.595 345.766 53.926 348.435 53.926 351.743 C 53.926 355.001 56.587 357.719 59.902 357.719 C 63.217 357.719 65.879 355.001 65.879 351.743 C 65.879 348.435 63.209 345.766 59.902 345.766 Z M 59.902 345.766" fill="#384949"/>
  <path d="M 59.902 353.735 C 58.784 353.735 57.91 352.797 57.91 351.743 C 57.91 350.643 58.803 349.75 59.902 349.75 C 61.001 349.75 61.894 350.643 61.894 351.743 C 61.894 352.752 61.031 353.735 59.902 353.735 Z M 59.902 353.735" fill="#c6e2e7"/>
  <path d="M 21.785 309.907 L 29.754 309.907 L 29.754 313.891 L 21.785 313.891 Z M 21.785 309.907" fill="#a8ebfa"/>
  <path d="M 33.738 309.907 L 41.84 309.907 L 41.84 313.891 L 33.738 313.891 Z M 33.738 309.907" fill="#76e2f8"/>
  <path d="M 45.824 309.907 L 53.926 309.907 L 53.926 313.891 L 45.824 313.891 Z M 45.824 309.907" fill="#76e2f8"/>
  <path d="M 67.991 313.891 L 57.91 313.891 L 57.91 309.907 L 66.636 309.907 Z M 67.991 313.891" fill="#76e2f8"/>
  <path d="M 9.832 325.844 L 17.801 325.844 L 17.801 329.828 L 9.832 329.828 Z M 9.832 325.844" fill="#a8ebfa"/>
  <path d="M 21.785 325.844 L 29.754 325.844 L 29.754 329.828 L 21.785 329.828 Z M 21.785 325.844" fill="#a8ebfa"/>
  <path d="M 33.738 325.844 L 41.84 325.844 L 41.84 329.828 L 33.738 329.828 Z M 33.738 325.844" fill="#76e2f8"/>
  <path d="M 45.824 325.844 L 53.926 325.844 L 53.926 329.828 L 45.824 329.828 Z M 45.824 325.844" fill="#76e2f8"/>
  <path d="M 73.847 331.821 L 73.847 333.813 L 60.739 333.813 L 57.91 330.984 L 57.91 325.844 L 71.935 325.844 L 73.728 331.183 C 73.808 331.382 73.847 331.621 73.847 331.821 Z M 73.847 331.821" fill="#76e2f8"/>
  <path d="M 49.941 339.789 C 49.941 340.905 49.065 341.782 47.949 341.782 L 31.746 341.782 L 31.746 337.797 L 47.949 337.797 C 49.065 337.797 49.941 338.673 49.941 339.789 Z M 49.941 339.789" fill="#f89580"/>
  <path d="M 37.722 351.743 C 37.722 355.01 35.053 357.719 31.746 357.719 L 31.746 345.766 C 35.053 345.766 37.722 348.435 37.722 351.743 Z M 37.722 351.743" fill="#384949"/>
  <path d="M 33.738 351.743 C 33.738 352.735 32.917 353.735 31.746 353.735 C 30.735 353.735 29.754 352.888 29.754 351.743 C 29.754 349.18 33.738 349.035 33.738 351.743 Z M 33.738 351.743" fill="#deecf1"/>
  <path d="M 33.738 351.743 C 33.738 352.735 32.917 353.735 31.746 353.735 L 31.746 349.75 C 32.862 349.75 33.738 350.627 33.738 351.743 Z M 33.738 351.743" fill="#c6e2e7"/>
  <g transform="matrix(0.197345, 0, 0, 0.197345, 217.239185, 391.723211)">
    <path d="m384.747 32.562c-1.772-1.329-44.386-32.562-128.749-32.562-6.047 0-12.097.164-17.982.489-4.136.228-7.304 3.766-7.075 7.901.227 4.135 3.754 7.296 7.901 7.075 5.611-.308 11.384-.465 17.156-.465 66.832 0 106.052 20.98 116.749 27.594v35.038h-233.498v-35.043c7.771-4.819 30.512-17.201 67.759-23.578 4.083-.699 6.826-4.575 6.127-8.658-.699-4.082-4.577-6.827-8.658-6.127-50.533 8.651-76.161 27.537-77.228 28.337-1.889 1.417-3 3.64-3 6v77.64c0 4.143 3.357 7.5 7.5 7.5h8.031v342.231h-8.031c-4.143 0-7.5 3.357-7.5 7.5v31.062c0 4.143 3.357 7.5 7.5 7.5h248.498c4.143 0 7.5-3.357 7.5-7.5v-31.062c0-4.143-3.357-7.5-7.5-7.5h-8.031v-209.124c0-4.143-3.357-7.5-7.5-7.5s-7.5 3.357-7.5 7.5v209.124h-202.436v-342.232h202.436v100.422c0 4.143 3.357 7.5 7.5 7.5s7.5-3.357 7.5-7.5v-100.422h8.031c4.143 0 7.5-3.357 7.5-7.5v-77.64c0-2.36-1.111-4.583-3-6zm-12 448.372v16.062h-233.498v-16.062zm0-372.232h-233.498v-16.07h233.498z"/>
    <path d="m341.153 147.28c0-4.143-3.357-7.5-7.5-7.5h-155.31c-4.143 0-7.5 3.357-7.5 7.5v232.967c0 4.143 3.357 7.5 7.5 7.5h155.311c4.143 0 7.5-3.357 7.5-7.5v-232.967zm-103.54 178.873v-31.593h36.77v31.593zm36.77 15v31.594h-36.77v-31.594zm0-139.779v31.593h-36.77v-31.593zm-36.77-15v-31.594h36.77v31.594zm0 61.593h36.77v31.594h-36.77zm-15 31.594h-36.771v-31.594h36.771zm66.77-31.594h36.771v31.594h-36.771zm36.77-15h-36.771v-31.593h36.771zm-103.54 0h-36.771v-31.593h36.771zm-36.77 61.594h36.771v31.593h-36.771zm103.54 0h36.771v31.593h-36.771zm36.77-108.187h-36.771v-31.594h36.771zm-103.54-31.594v31.594h-36.771v-31.594zm-36.77 186.373h36.771v31.594h-36.771zm103.54 31.594v-31.594h36.771v31.594z"/>
    <path d="m272.342 434.855c-4.143 0-7.5 3.357-7.5 7.5s3.357 7.5 7.5 7.5h61.312c4.143 0 7.5-3.357 7.5-7.5v-31.062c0-4.143-3.357-7.5-7.5-7.5h-155.311c-4.143 0-7.5 3.357-7.5 7.5v31.062c0 4.143 3.357 7.5 7.5 7.5h61.312c4.143 0 7.5-3.357 7.5-7.5s-3.357-7.5-7.5-7.5h-53.812v-16.062h140.311v16.062z"/>
    <path d="m186.374 50.668c0 4.143 3.357 7.5 7.5 7.5h124.248c4.143 0 7.5-3.357 7.5-7.5s-3.357-7.5-7.5-7.5h-124.248c-4.143 0-7.5 3.357-7.5 7.5z"/>
  </g>
  <g id="surface1" transform="matrix(0.235765, 0, 0, 0.24538, 135.218767, 196.841098)" style="">
    <path d="M 134.320312 499.964844 L 134.320312 581.796875 L 306.503906 549.238281 L 306.503906 499.964844 Z M 245.28125 520.371094 L 245.28125 540.046875 L 224.875 543.902344 L 224.875 520.371094 Z M 154.726562 520.371094 L 204.46875 520.371094 L 204.46875 547.757812 L 154.726562 557.15625 Z M 286.097656 532.320312 L 265.691406 536.179688 L 265.691406 520.371094 L 286.097656 520.371094 Z M 286.097656 532.320312 " style=" stroke:none;fill-rule:nonzero;fill:rgb(29.019608%,61.568627%,85.098039%);fill-opacity:1;"/>
    <path d="M 287.371094 499.964844 L 287.371094 549.238281 L 459.554688 581.796875 L 459.554688 499.964844 Z M 369 520.371094 L 369 543.902344 L 348.59375 540.042969 L 348.59375 520.371094 Z M 439.148438 557.15625 L 389.40625 547.757812 L 389.40625 520.371094 L 439.148438 520.371094 Z M 307.777344 520.371094 L 328.1875 520.371094 L 328.1875 536.179688 L 307.777344 532.320312 Z M 307.777344 520.371094 " style=" stroke:none;fill-rule:nonzero;fill:rgb(29.019608%,61.568627%,85.098039%);fill-opacity:1;"/>
    <path d="M 449.351562 295.898438 L 143.25 295.898438 L 143.25 234.679688 L 449.351562 234.679688 Z M 163.65625 275.492188 L 428.945312 275.492188 L 428.945312 255.085938 L 163.65625 255.085938 Z M 163.65625 275.492188 " style=" stroke:none;fill-rule:nonzero;fill:rgb(29.019608%,61.568627%,85.098039%);fill-opacity:1;"/>
    <path d="M 326.910156 295.898438 L 265.691406 295.898438 L 265.691406 234.679688 L 326.910156 234.679688 Z M 286.097656 275.492188 L 306.503906 275.492188 L 306.503906 255.085938 L 286.097656 255.085938 Z M 286.097656 275.492188 " style=" stroke:none;fill-rule:nonzero;fill:rgb(29.019608%,61.568627%,85.098039%);fill-opacity:1;"/>
    <path d="M 224.875 244.882812 L 245.28125 244.882812 L 245.28125 285.695312 L 224.875 285.695312 Z M 224.875 244.882812 " style=" stroke:none;fill-rule:nonzero;fill:rgb(29.019608%,61.568627%,85.098039%);fill-opacity:1;"/>
    <path d="M 184.0625 244.882812 L 204.46875 244.882812 L 204.46875 285.695312 L 184.0625 285.695312 Z M 184.0625 244.882812 " style=" stroke:none;fill-rule:nonzero;fill:rgb(29.019608%,61.568627%,85.098039%);fill-opacity:1;"/>
    <path d="M 347.316406 244.882812 L 367.722656 244.882812 L 367.722656 285.695312 L 347.316406 285.695312 Z M 347.316406 244.882812 " style=" stroke:none;fill-rule:nonzero;fill:rgb(29.019608%,61.568627%,85.098039%);fill-opacity:1;"/>
    <path d="M 388.128906 244.882812 L 408.539062 244.882812 L 408.539062 285.695312 L 388.128906 285.695312 Z M 388.128906 244.882812 " style=" stroke:none;fill-rule:nonzero;fill:rgb(29.019608%,61.568627%,85.098039%);fill-opacity:1;"/>
    <path d="M 20.808594 193.863281 L 163.65625 193.863281 L 163.65625 510.167969 L 20.808594 510.167969 Z M 20.808594 193.863281 " style=" stroke:none;fill-rule:nonzero;fill:rgb(81.568627%,84.313725%,87.45098%);fill-opacity:1;"/>
    <path d="M 122.84375 132.644531 L 92.230469 40.8125 L 61.621094 132.644531 L 61.621094 193.863281 L 122.84375 193.863281 Z M 122.84375 132.644531 " style=" stroke:none;fill-rule:nonzero;fill:rgb(29.019608%,61.568627%,85.098039%);fill-opacity:1;"/>
    <path d="M 82.027344 0 L 102.4375 0 L 102.4375 71.421875 L 82.027344 71.421875 Z M 82.027344 0 " style=" stroke:none;fill-rule:nonzero;fill:rgb(81.568627%,84.313725%,87.45098%);fill-opacity:1;"/>
    <path d="M 41.214844 71.421875 L 20.808594 132.644531 L 20.808594 193.863281 L 61.621094 193.863281 L 61.621094 132.644531 Z M 41.214844 71.421875 " style=" stroke:none;fill-rule:nonzero;fill:rgb(29.019608%,61.568627%,85.098039%);fill-opacity:1;"/>
    <path d="M 31.011719 40.8125 L 51.417969 40.8125 L 51.417969 102.035156 L 31.011719 102.035156 Z M 31.011719 40.8125 " style=" stroke:none;fill-rule:nonzero;fill:rgb(81.568627%,84.313725%,87.45098%);fill-opacity:1;"/>
    <path d="M 143.25 71.421875 L 122.84375 132.644531 L 122.84375 193.863281 L 163.65625 193.863281 L 163.65625 132.644531 Z M 143.25 71.421875 " style=" stroke:none;fill-rule:nonzero;fill:rgb(29.019608%,61.568627%,85.098039%);fill-opacity:1;"/>
    <path d="M 133.046875 40.8125 L 153.453125 40.8125 L 153.453125 102.035156 L 133.046875 102.035156 Z M 133.046875 40.8125 " style=" stroke:none;fill-rule:nonzero;fill:rgb(81.568627%,84.313725%,87.45098%);fill-opacity:1;"/>
    <path d="M 20.808594 275.492188 L 163.65625 275.492188 L 163.65625 295.898438 L 20.808594 295.898438 Z M 20.808594 275.492188 " style=" stroke:none;fill-rule:nonzero;fill:rgb(76.470588%,78.823529%,81.960784%);fill-opacity:1;"/>
    <path d="M 20.808594 367.320312 L 163.65625 367.320312 L 163.65625 387.730469 L 20.808594 387.730469 Z M 20.808594 367.320312 " style=" stroke:none;fill-rule:nonzero;fill:rgb(76.470588%,78.823529%,81.960784%);fill-opacity:1;"/>
    <path d="M 102.4375 224.472656 L 122.84375 224.472656 L 122.84375 255.085938 L 102.4375 255.085938 Z M 102.4375 224.472656 " style=" stroke:none;fill-rule:nonzero;fill:rgb(47.45098%,55.294118%,63.137255%);fill-opacity:1;"/>
    <path d="M 61.621094 224.472656 L 82.027344 224.472656 L 82.027344 255.085938 L 61.621094 255.085938 Z M 61.621094 224.472656 " style=" stroke:none;fill-rule:nonzero;fill:rgb(47.45098%,55.294118%,63.137255%);fill-opacity:1;"/>
    <path d="M 102.4375 316.304688 L 122.84375 316.304688 L 122.84375 346.914062 L 102.4375 346.914062 Z M 102.4375 316.304688 " style=" stroke:none;fill-rule:nonzero;fill:rgb(47.45098%,55.294118%,63.137255%);fill-opacity:1;"/>
    <path d="M 61.621094 316.304688 L 82.027344 316.304688 L 82.027344 346.914062 L 61.621094 346.914062 Z M 61.621094 316.304688 " style=" stroke:none;fill-rule:nonzero;fill:rgb(47.45098%,55.294118%,63.137255%);fill-opacity:1;"/>
    <path d="M 102.4375 448.949219 L 122.84375 448.949219 L 122.84375 479.558594 L 102.4375 479.558594 Z M 102.4375 448.949219 " style=" stroke:none;fill-rule:nonzero;fill:rgb(47.45098%,55.294118%,63.137255%);fill-opacity:1;"/>
    <path d="M 61.621094 448.949219 L 82.027344 448.949219 L 82.027344 479.558594 L 61.621094 479.558594 Z M 61.621094 448.949219 " style=" stroke:none;fill-rule:nonzero;fill:rgb(47.45098%,55.294118%,63.137255%);fill-opacity:1;"/>
    <path d="M 61.621094 408.136719 L 82.027344 408.136719 L 82.027344 428.542969 L 61.621094 428.542969 Z M 61.621094 408.136719 " style=" stroke:none;fill-rule:nonzero;fill:rgb(47.45098%,55.294118%,63.137255%);fill-opacity:1;"/>
    <path d="M 102.4375 408.136719 L 122.84375 408.136719 L 122.84375 428.542969 L 102.4375 428.542969 Z M 102.4375 408.136719 " style=" stroke:none;fill-rule:nonzero;fill:rgb(47.45098%,55.294118%,63.137255%);fill-opacity:1;"/>
    <path d="M 92.230469 132.644531 L 61.621094 193.863281 L 122.84375 193.863281 Z M 92.230469 132.644531 " style=" stroke:none;fill-rule:nonzero;fill:rgb(81.568627%,84.313725%,87.45098%);fill-opacity:1;"/>
    <path d="M 0.402344 499.964844 L 173.859375 499.964844 L 173.859375 602 L 0.402344 602 Z M 0.402344 499.964844 " style=" stroke:none;fill-rule:nonzero;fill:rgb(81.568627%,84.313725%,87.45098%);fill-opacity:1;"/>
    <path d="M 0.402344 520.371094 L 173.859375 520.371094 L 173.859375 540.78125 L 0.402344 540.78125 Z M 0.402344 520.371094 " style=" stroke:none;fill-rule:nonzero;fill:rgb(76.470588%,78.823529%,81.960784%);fill-opacity:1;"/>
    <path d="M 428.945312 193.863281 L 571.792969 193.863281 L 571.792969 510.167969 L 428.945312 510.167969 Z M 428.945312 193.863281 " style=" stroke:none;fill-rule:nonzero;fill:rgb(81.568627%,84.313725%,87.45098%);fill-opacity:1;"/>
    <path d="M 530.976562 132.644531 L 500.367188 40.8125 L 469.757812 132.644531 L 469.757812 193.863281 L 530.976562 193.863281 Z M 530.976562 132.644531 " style=" stroke:none;fill-rule:nonzero;fill:rgb(29.019608%,61.568627%,85.098039%);fill-opacity:1;"/>
    <path d="M 490.164062 0 L 510.570312 0 L 510.570312 71.421875 L 490.164062 71.421875 Z M 490.164062 0 " style=" stroke:none;fill-rule:nonzero;fill:rgb(81.568627%,84.313725%,87.45098%);fill-opacity:1;"/>
    <path d="M 449.351562 71.421875 L 428.945312 132.644531 L 428.945312 193.863281 L 469.757812 193.863281 L 469.757812 132.644531 Z M 449.351562 71.421875 " style=" stroke:none;fill-rule:nonzero;fill:rgb(29.019608%,61.568627%,85.098039%);fill-opacity:1;"/>
    <path d="M 439.148438 40.8125 L 459.554688 40.8125 L 459.554688 102.035156 L 439.148438 102.035156 Z M 439.148438 40.8125 " style=" stroke:none;fill-rule:nonzero;fill:rgb(81.568627%,84.313725%,87.45098%);fill-opacity:1;"/>
    <path d="M 551.382812 71.421875 L 530.976562 132.644531 L 530.976562 193.863281 L 571.792969 193.863281 L 571.792969 132.644531 Z M 551.382812 71.421875 " style=" stroke:none;fill-rule:nonzero;fill:rgb(29.019608%,61.568627%,85.098039%);fill-opacity:1;"/>
    <path d="M 541.179688 40.8125 L 561.589844 40.8125 L 561.589844 102.035156 L 541.179688 102.035156 Z M 541.179688 40.8125 " style=" stroke:none;fill-rule:nonzero;fill:rgb(81.568627%,84.313725%,87.45098%);fill-opacity:1;"/>
    <path d="M 428.945312 275.492188 L 571.792969 275.492188 L 571.792969 295.898438 L 428.945312 295.898438 Z M 428.945312 275.492188 " style=" stroke:none;fill-rule:nonzero;fill:rgb(76.470588%,78.823529%,81.960784%);fill-opacity:1;"/>
    <path d="M 428.945312 367.320312 L 571.792969 367.320312 L 571.792969 387.730469 L 428.945312 387.730469 Z M 428.945312 367.320312 " style=" stroke:none;fill-rule:nonzero;fill:rgb(76.470588%,78.823529%,81.960784%);fill-opacity:1;"/>
    <path d="M 510.570312 224.472656 L 530.976562 224.472656 L 530.976562 255.085938 L 510.570312 255.085938 Z M 510.570312 224.472656 " style=" stroke:none;fill-rule:nonzero;fill:rgb(47.45098%,55.294118%,63.137255%);fill-opacity:1;"/>
    <path d="M 469.757812 224.472656 L 490.164062 224.472656 L 490.164062 255.085938 L 469.757812 255.085938 Z M 469.757812 224.472656 " style=" stroke:none;fill-rule:nonzero;fill:rgb(47.45098%,55.294118%,63.137255%);fill-opacity:1;"/>
    <path d="M 510.570312 316.304688 L 530.976562 316.304688 L 530.976562 346.914062 L 510.570312 346.914062 Z M 510.570312 316.304688 " style=" stroke:none;fill-rule:nonzero;fill:rgb(47.45098%,55.294118%,63.137255%);fill-opacity:1;"/>
    <path d="M 469.757812 316.304688 L 490.164062 316.304688 L 490.164062 346.914062 L 469.757812 346.914062 Z M 469.757812 316.304688 " style=" stroke:none;fill-rule:nonzero;fill:rgb(47.45098%,55.294118%,63.137255%);fill-opacity:1;"/>
    <path d="M 510.570312 448.949219 L 530.976562 448.949219 L 530.976562 479.558594 L 510.570312 479.558594 Z M 510.570312 448.949219 " style=" stroke:none;fill-rule:nonzero;fill:rgb(47.45098%,55.294118%,63.137255%);fill-opacity:1;"/>
    <path d="M 469.757812 448.949219 L 490.164062 448.949219 L 490.164062 479.558594 L 469.757812 479.558594 Z M 469.757812 448.949219 " style=" stroke:none;fill-rule:nonzero;fill:rgb(47.45098%,55.294118%,63.137255%);fill-opacity:1;"/>
    <path d="M 469.757812 408.136719 L 490.164062 408.136719 L 490.164062 428.542969 L 469.757812 428.542969 Z M 469.757812 408.136719 " style=" stroke:none;fill-rule:nonzero;fill:rgb(47.45098%,55.294118%,63.137255%);fill-opacity:1;"/>
    <path d="M 510.570312 408.136719 L 530.976562 408.136719 L 530.976562 428.542969 L 510.570312 428.542969 Z M 510.570312 408.136719 " style=" stroke:none;fill-rule:nonzero;fill:rgb(47.45098%,55.294118%,63.137255%);fill-opacity:1;"/>
    <path d="M 500.367188 132.644531 L 469.757812 193.863281 L 530.976562 193.863281 Z M 500.367188 132.644531 " style=" stroke:none;fill-rule:nonzero;fill:rgb(81.568627%,84.313725%,87.45098%);fill-opacity:1;"/>
    <path d="M 418.742188 499.964844 L 592.199219 499.964844 L 592.199219 602 L 418.742188 602 Z M 418.742188 499.964844 " style=" stroke:none;fill-rule:nonzero;fill:rgb(81.568627%,84.313725%,87.45098%);fill-opacity:1;"/>
    <path d="M 418.742188 520.371094 L 592.199219 520.371094 L 592.199219 540.78125 L 418.742188 540.78125 Z M 418.742188 520.371094 " style=" stroke:none;fill-rule:nonzero;fill:rgb(76.470588%,78.823529%,81.960784%);fill-opacity:1;"/>
  </g>
  <g transform="matrix(0.169922, 0, 0, 0.169922, 337.832464, 374.48551)">
    <g>
      <path d="M390.162,114.172h-0.01c-5.523,0-9.995,4.477-9.995,10c0,5.523,4.482,10,10.005,10c5.523,0,10-4.477,10-10 C400.162,118.649,395.685,114.172,390.162,114.172z"/>
    </g>
  </g>
  <g transform="matrix(0.169922, 0, 0, 0.169922, 337.832464, 374.48551)">
    <g>
      <path d="M502,171.501h-22.647C444.355,78.935,355.503,17.237,256,17.237c-99.504,0-188.355,61.699-223.352,154.265H10 c-5.523,0-10,4.477-10,10v148.995c0,5.523,4.477,10,10,10h22.647C67.645,433.063,156.497,494.762,256,494.762 s188.355-61.699,223.352-154.265h22.647c5.522,0,10-4.477,10-10V181.501C512,175.978,507.522,171.501,502,171.501z M256,37.237 c88.611,0,168.013,53.4,201.842,134.265h-83.218c-27.359-38.387-71.302-61.141-118.624-61.141s-91.263,22.754-118.624,61.141 h-38.21C130.133,114.151,190.198,77.823,256,77.823c34.111,0,67.28,9.712,95.924,28.085c4.65,2.982,10.834,1.631,13.816-3.018 c2.983-4.649,1.631-10.834-3.017-13.816C330.851,68.629,293.947,57.823,256,57.823c-76.763,0-146.503,44.436-179.239,113.679 H54.157C87.987,90.638,167.389,37.237,256,37.237z M348.986,171.501H163.015c23.638-26.046,57.192-41.141,92.986-41.141 C291.793,130.361,325.347,145.455,348.986,171.501z M256,474.761c-88.611,0-168.013-53.4-201.842-134.265h22.596 c32.735,69.318,102.239,113.679,179.247,113.679c5.523,0,10-4.477,10-10s-4.477-10-10-10c-66.017,0-125.906-36.267-156.851-93.679 h38.227c27.36,38.387,71.302,61.141,118.624,61.141c47.321,0,91.263-22.754,118.624-61.141h83.219 C424.013,421.36,344.611,474.761,256,474.761z M163.015,340.496h185.971c-23.638,26.046-57.192,41.141-92.986,41.141 C220.206,381.637,186.653,366.542,163.015,340.496z M491.999,320.496h-19.646c-0.003,0-0.005,0-0.008,0H369.356 c-0.003,0-0.005,0-0.008,0H142.652c-0.002,0-0.005,0-0.007,0H39.654c-0.003,0-0.005,0-0.008,0H20V191.501h19.646 c0.003,0,0.005,0.001,0.008,0.001h102.99c0.003,0,0.005-0.001,0.008-0.001h226.696c0.003,0,0.005,0.001,0.008,0.001h102.989 c0.003,0,0.005-0.001,0.008-0.001h19.646V320.496z"/>
    </g>
  </g>
  <g transform="matrix(0.169922, 0, 0, 0.169922, 337.832464, 374.48551)">
    <g>
      <path d="M122.915,279.196h-23.35v-56.123c0-3.379-3.994-4.813-7.988-4.813s-7.988,1.434-7.988,4.813v65.136 c0,3.277,3.483,4.916,6.965,4.916h32.363c3.073,0,4.609-3.482,4.609-6.964C127.525,282.678,125.988,279.196,122.915,279.196z"/>
    </g>
  </g>
  <g transform="matrix(0.169922, 0, 0, 0.169922, 337.832464, 374.48551)">
    <g>
      <path d="M157.122,218.259c-14.134,0-25.092,6.555-25.092,24.17v27.14c0,17.615,10.958,24.169,25.092,24.169 c14.133,0,25.194-6.555,25.194-24.169v-27.14C182.315,224.813,171.255,218.259,157.122,218.259z M166.339,269.569 c0,7.066-3.482,10.241-9.217,10.241c-5.736,0-9.115-3.175-9.115-10.241v-27.14c0-7.066,3.379-10.241,9.115-10.241 c5.735,0,9.217,3.175,9.217,10.241V269.569z"/>
    </g>
  </g>
  <g transform="matrix(0.169922, 0, 0, 0.169922, 337.832464, 374.48551)">
    <g>
      <path d="M236.901,218.259c-3.994,0-7.988,1.434-7.988,4.813v34.821l-16.591-31.646c-3.892-7.477-6.042-7.988-11.778-7.988 c-3.994,0-7.988,1.536-7.988,4.916v65.034c0,3.277,3.994,4.916,7.988,4.916c3.994,0,7.988-1.639,7.988-4.916v-34.821 l19.459,35.436c1.946,3.584,5.223,4.301,8.91,4.301c3.994,0,7.988-1.639,7.988-4.916v-65.136 C244.889,219.692,240.895,218.259,236.901,218.259z"/>
    </g>
  </g>
  <g transform="matrix(0.169922, 0, 0, 0.169922, 337.832464, 374.48551)">
    <g>
      <path d="M281.04,218.259h-18.127c-4.199,0-6.965,2.253-6.965,4.813v65.238c0,2.56,2.765,4.813,6.965,4.813h18.127 c14.134,0,25.195-6.554,25.195-24.17v-26.525C306.235,224.813,295.174,218.259,281.04,218.259z M290.258,268.955 c0,6.964-3.482,10.242-9.218,10.242h-9.115v-47.008h9.115c5.736,0,9.218,3.277,9.218,10.241V268.955z"/>
    </g>
  </g>
  <g transform="matrix(0.169922, 0, 0, 0.169922, 337.832464, 374.48551)">
    <g>
      <path d="M340.645,218.259c-14.134,0-25.091,6.555-25.091,24.17v27.14c0,17.615,10.958,24.169,25.091,24.169 c14.133,0,25.194-6.555,25.194-24.169v-27.14C365.838,224.813,354.777,218.259,340.645,218.259z M349.862,269.569 c0,7.066-3.482,10.241-9.217,10.241c-5.736,0-9.115-3.175-9.115-10.241v-27.14c0-7.066,3.379-10.241,9.115-10.241 c5.735,0,9.217,3.175,9.217,10.241V269.569z"/>
    </g>
  </g>
  <g transform="matrix(0.169922, 0, 0, 0.169922, 337.832464, 374.48551)">
    <g>
      <path d="M420.424,218.259c-3.994,0-7.988,1.434-7.988,4.813v34.821l-16.591-31.646c-3.892-7.477-6.042-7.988-11.778-7.988 c-3.994,0-7.989,1.536-7.989,4.916v65.034c0,3.277,3.994,4.916,7.989,4.916c3.994,0,7.988-1.639,7.988-4.916v-34.821l19.46,35.436 c1.946,3.584,5.223,4.301,8.91,4.301c3.994,0,7.988-1.639,7.988-4.916v-65.136C428.413,219.692,424.418,218.259,420.424,218.259z"/>
    </g>
  </g>
  <g transform="matrix(0.169922, 0, 0, 0.169922, 168.467959, 36.505879)"/>
  <g transform="matrix(0.169922, 0, 0, 0.169922, 168.467959, 36.505879)"/>
  <g transform="matrix(0.169922, 0, 0, 0.169922, 168.467959, 36.505879)"/>
  <g transform="matrix(0.169922, 0, 0, 0.169922, 168.467959, 36.505879)"/>
  <g transform="matrix(0.169922, 0, 0, 0.169922, 168.467959, 36.505879)"/>
  <g transform="matrix(0.169922, 0, 0, 0.169922, 168.467959, 36.505879)"/>
  <g transform="matrix(0.169922, 0, 0, 0.169922, 168.467959, 36.505879)"/>
  <g transform="matrix(0.169922, 0, 0, 0.169922, 168.467959, 36.505879)"/>
  <g transform="matrix(0.169922, 0, 0, 0.169922, 168.467959, 36.505879)"/>
  <g transform="matrix(0.169922, 0, 0, 0.169922, 168.467959, 36.505879)"/>
  <g transform="matrix(0.169922, 0, 0, 0.169922, 168.467959, 36.505879)"/>
  <g transform="matrix(0.169922, 0, 0, 0.169922, 168.467959, 36.505879)"/>
  <g transform="matrix(0.169922, 0, 0, 0.169922, 168.467959, 36.505879)"/>
  <g transform="matrix(0.169922, 0, 0, 0.169922, 168.467959, 36.505879)"/>
  <g transform="matrix(0.169922, 0, 0, 0.169922, 168.467959, 36.505879)"/>
  <path d="M 190.664 368.15 L 145.835 368.15 C 137.241 368.15 130.249 375.142 130.249 383.736 L 130.249 408.814 C 130.249 417.408 137.241 424.4 145.835 424.4 L 148.148 424.4 L 153.569 431.277 C 153.992 431.813 154.636 432.126 155.318 432.126 C 156 432.126 156.645 431.813 157.067 431.277 L 162.488 424.4 L 190.664 424.4 C 199.258 424.4 206.249 417.408 206.249 408.814 L 206.249 383.736 C 206.249 375.142 199.258 368.15 190.664 368.15 Z M 172.145 402.4 L 172.145 419.947 L 164.354 419.947 L 164.354 402.4 C 164.354 401.17 163.357 400.173 162.128 400.173 L 134.703 400.173 L 134.703 392.383 L 162.128 392.383 C 163.357 392.383 164.354 391.386 164.354 390.156 L 164.354 372.603 L 172.145 372.603 L 172.145 390.156 C 172.145 391.386 173.142 392.383 174.371 392.383 L 201.796 392.383 L 201.796 400.173 L 174.371 400.173 C 173.142 400.173 172.145 401.17 172.145 402.4 Z M 176.598 372.603 L 188.776 372.603 L 176.598 384.781 Z M 159.901 384.781 L 147.723 372.603 L 159.901 372.603 Z M 176.598 407.776 L 188.769 419.947 L 176.598 419.947 Z M 201.796 383.736 L 201.796 387.93 L 179.746 387.93 L 194.42 373.257 C 198.715 374.802 201.796 378.915 201.796 383.736 Z M 142.079 373.257 L 156.753 387.93 L 134.703 387.93 L 134.703 383.736 C 134.703 378.915 137.784 374.802 142.079 373.257 Z M 134.703 408.814 L 134.703 404.627 L 156.753 404.627 L 142.084 419.295 C 137.786 417.752 134.703 413.637 134.703 408.814 Z M 159.659 420.795 L 155.318 426.303 L 150.977 420.795 C 150.555 420.259 149.91 419.947 149.229 419.947 L 147.73 419.947 L 159.901 407.776 L 159.901 420.539 C 159.815 420.618 159.732 420.702 159.659 420.795 Z M 194.415 419.295 L 179.746 404.627 L 201.796 404.627 L 201.796 408.814 C 201.796 413.637 198.713 417.752 194.415 419.295 Z M 194.415 419.295"/>
  <path d="M 480.472 473.407 L 480.229 472.534 L 477.437 462.388 C 476.803 460.062 475.006 458.223 472.681 457.521 L 468.381 456.217 C 468.482 456.062 468.535 455.88 468.532 455.695 L 468.532 454.26 C 468.536 454.042 468.464 453.831 468.33 453.658 C 468.04 453.263 467.505 453.136 467.066 453.357 L 464.536 454.621 L 464.526 454.621 L 464.485 454.641 L 464.424 454.611 L 461.905 453.357 C 461.466 453.136 460.93 453.263 460.64 453.658 C 460.505 453.829 460.434 454.042 460.438 454.26 L 460.438 455.695 C 460.435 455.88 460.488 456.062 460.59 456.217 L 456.289 457.521 C 456.068 457.587 455.852 457.667 455.642 457.762 C 455.562 457.786 455.484 457.817 455.409 457.853 C 453.501 458.717 452.08 460.38 451.534 462.388 L 448.741 472.534 L 448.498 473.407 C 448.318 474.085 448.226 474.783 448.225 475.484 C 448.224 476.447 448.399 477.403 448.741 478.305 L 452.212 487.336 L 453.072 487.015 L 454.367 486.523 L 454.367 488.761 C 454.367 488.948 454.395 489.133 454.448 489.313 C 454.696 490.173 455.488 490.767 456.39 490.768 L 472.185 490.768 C 472.456 490.77 472.716 490.664 472.907 490.473 C 473.097 490.282 473.202 490.023 473.197 489.754 C 474.196 489.712 475.077 489.091 475.443 488.169 L 475.899 487.015 L 476.759 487.336 L 480.229 478.305 C 480.572 477.403 480.746 476.447 480.745 475.484 C 480.745 474.783 480.653 474.085 480.472 473.407 Z M 473.025 469.212 L 474.431 474.33 C 474.655 475.152 474.612 476.022 474.31 476.819 L 471.568 483.954 L 471.568 475.715 Z M 473.025 469.212" fill="#c03a2b" style=""/>
  <path d="M 459.487 448.58 C 459.476 448.58 459.457 448.57 459.446 448.57 C 458.26 448.34 457.404 447.31 457.402 446.111 L 457.402 439.589 C 457.402 437.078 458.752 434.759 460.944 433.505 C 463.135 432.25 465.835 432.25 468.027 433.505 C 470.218 434.759 471.568 437.078 471.568 439.589 L 471.568 446.111 C 471.566 447.31 470.71 448.34 469.524 448.57 C 469.514 448.57 469.494 448.58 469.484 448.58 Z M 459.487 448.58" fill="#2c2f38" style=""/>
  <path d="M 469.524 448.64 C 469.529 448.839 469.519 449.036 469.494 449.232 C 469.473 449.64 469.425 450.045 469.352 450.447 C 469.173 451.561 468.828 452.643 468.33 453.658 C 468.057 453.287 467.541 455.414 467.066 455.645 L 464.536 456.909 L 464.526 456.909 C 464.492 456.902 464.458 456.898 464.424 456.9 L 461.905 455.645 C 461.429 455.414 460.914 453.287 460.64 453.658 C 460.143 452.643 459.798 451.561 459.618 450.447 C 459.545 450.045 459.498 449.64 459.476 449.232 C 459.451 449.036 459.441 448.839 459.446 448.64 C 459.456 448.618 459.47 448.598 459.487 448.58 C 460.266 447.396 462.219 446.552 464.485 446.552 C 466.752 446.552 468.705 447.396 469.484 448.58 C 469.501 448.598 469.514 448.618 469.524 448.64 Z M 469.524 448.64" fill="#fdd7ad" style=""/>
  <g fill="#e64c3c" transform="matrix(0.114622, 0, 0, 0.11368, 448.22541, 432.564032)" style="">
    <path d="m141.859375 229.515625v150.070313h-52.964844v-141.242188c-.074219-9.71875-7.933593-17.582031-17.65625-17.652344-2.207031 0-4.394531.417969-6.445312 1.234375l-.085938-.265625c1.832031-.835937 3.71875-1.542968 5.648438-2.117187l37.519531-11.476563c.769531 1.183594 1.792969 2.179688 3 2.914063zm0 0"/>
    <path d="m64.792969 221.925781c-.667969.242188-1.316407.535157-1.941407.882813-5.691406 3.097656-9.246093 9.054687-9.269531 15.535156v236.316406l-11.296875 4.324219-7.503906 2.824219-30.277344-79.445313c-2.988281-7.929687-4.5156248-16.335937-4.503906-24.808593.00390625-6.167969.804688-12.308594 2.382812-18.273438l2.121094-7.679688 24.363282-89.246093c4.769531-17.667969 17.164062-32.296875 33.808593-39.898438.65625-.320312 1.335938-.585937 2.03125-.796875zm0 0"/>
    <path d="m141.859375 432.550781v79.449219h-57.910156c5.449219.003906 10.589843-2.507812 13.9375-6.804688 3.347656-4.296874 4.523437-9.894531 3.1875-15.175781l-12.179688-48.640625h44.136719c4.875 0 8.828125-3.953125 8.828125-8.828125zm0 0"/>
  </g>
  <path d="M 464.485 454.641 L 464.485 458.655 L 460.934 456.548 C 460.795 456.465 460.678 456.351 460.59 456.217 C 460.488 456.062 460.435 455.88 460.438 455.695 L 460.438 454.26 C 460.434 454.042 460.505 453.829 460.64 453.658 C 460.93 453.263 461.466 453.136 461.905 453.357 L 464.424 454.611 Z M 464.485 454.641" fill="#c03a2b" style=""/>
  <path d="M 454.448 489.313 C 454.032 489.033 453.71 488.634 453.527 488.169 L 453.072 487.015 L 454.367 486.523 L 454.367 488.761 C 454.367 488.948 454.395 489.133 454.448 489.313 Z M 454.448 489.313" fill="#fdd7ad" style=""/>
  <path d="M 468.532 454.26 L 468.532 455.695 C 468.535 455.88 468.482 456.062 468.381 456.217 C 468.292 456.351 468.175 456.465 468.037 456.548 L 464.485 458.655 L 464.485 454.641 L 464.526 454.621 L 464.536 454.621 L 467.066 453.357 C 467.505 453.136 468.04 453.263 468.33 453.658 C 468.464 453.831 468.536 454.042 468.532 454.26 Z M 468.532 454.26" fill="#802f34" style=""/>
  <path d="M 475.899 487.015 L 475.443 488.169 C 475.077 489.091 474.196 489.712 473.197 489.754 C 472.845 489.776 472.493 489.721 472.165 489.594 C 470.847 489.088 470.175 487.634 470.647 486.312 L 471.092 485.188 Z M 475.899 487.015" fill="#fdd7ad" style=""/>
  <path d="M 468.532 460.662 C 468.532 461.216 468.08 461.666 467.521 461.666 C 466.962 461.666 466.509 461.216 466.509 460.662 C 466.509 460.108 466.962 459.659 467.521 459.659 C 468.08 459.659 468.532 460.108 468.532 460.662 Z M 468.532 460.662" fill="#e4c05c" style=""/>
  <path d="M 468.532 463.673 C 468.532 464.227 468.08 464.676 467.521 464.676 C 466.962 464.676 466.509 464.227 466.509 463.673 C 466.509 463.119 466.962 462.67 467.521 462.67 C 468.08 462.67 468.532 463.119 468.532 463.673 Z M 468.532 463.673" fill="#f3d55b" style=""/>
  <path d="M 468.532 466.683 C 468.532 467.237 468.08 467.687 467.521 467.687 C 466.962 467.687 466.509 467.237 466.509 466.683 C 466.509 466.129 466.962 465.68 467.521 465.68 C 468.08 465.68 468.532 466.129 468.532 466.683 Z M 468.532 466.683" fill="#e4c05c" style=""/>
  <path d="M 468.532 469.694 C 468.532 470.248 468.08 470.698 467.521 470.698 C 466.962 470.698 466.509 470.248 466.509 469.694 C 466.509 469.14 466.962 468.69 467.521 468.69 C 468.08 468.69 468.532 469.14 468.532 469.694 Z M 468.532 469.694" fill="#f3d55b" style=""/>
  <path d="M 468.532 472.704 C 468.532 473.259 468.08 473.708 467.521 473.708 C 466.962 473.708 466.509 473.259 466.509 472.704 C 466.509 472.15 466.962 471.701 467.521 471.701 C 468.08 471.701 468.532 472.15 468.532 472.704 Z M 468.532 472.704" fill="#e4c05c" style=""/>
  <path d="M 471.568 475.715 L 471.568 479.729 L 464.485 479.729 C 464.485 479.175 464.032 478.726 463.473 478.726 L 458.415 478.726 L 458.415 475.715 Z M 471.568 475.715" fill="#bdc3c7" style=""/>
  <path d="M 464.485 479.729 L 464.485 481.736 C 464.485 482.291 464.032 482.74 463.473 482.74 L 458.415 482.74 L 458.415 478.726 L 463.473 478.726 C 464.032 478.726 464.485 479.175 464.485 479.729 Z M 464.485 479.729" fill="#7f8c8d" style=""/>
  <path d="M 455.378 460.662 C 454.82 460.662 454.367 460.213 454.367 459.659 L 454.367 443.602 C 454.367 443.048 454.82 442.599 455.378 442.599 C 455.937 442.599 456.39 443.048 456.39 443.602 L 456.39 459.659 C 456.39 460.213 455.937 460.662 455.378 460.662 Z M 455.378 460.662" fill="#35495e" style=""/>
  <path d="M 457.848 490.768 L 456.39 490.768 C 455.488 490.767 454.696 490.173 454.448 489.313 C 454.395 489.133 454.367 488.948 454.367 488.761 L 454.367 459.659 C 454.369 458.922 454.777 458.245 455.429 457.893 C 455.501 457.853 455.575 457.82 455.652 457.792 C 455.887 457.699 456.138 457.652 456.39 457.652 C 457.505 457.66 458.406 458.554 458.415 459.659 L 458.415 482.74 L 459.81 488.269 C 459.964 488.87 459.829 489.506 459.445 489.995 C 459.061 490.483 458.472 490.768 457.848 490.768 Z M 457.848 490.768" fill="#2c2f38" style=""/>
  <path d="M 454.448 489.313 C 454.032 489.033 453.71 488.634 453.527 488.169 L 453.072 487.015 L 454.367 486.523 L 454.367 488.761 C 454.367 488.948 454.395 489.133 454.448 489.313 Z M 454.448 489.313" fill="#fdd7ad" style=""/>
  <g id="g-1" transform="matrix(0.100269, 0, 0, 0.110936, 10.689875, 11.061992)" style="">
    <path d="M 134.320312 499.964844 L 134.320312 581.796875 L 306.503906 549.238281 L 306.503906 499.964844 Z M 245.28125 520.371094 L 245.28125 540.046875 L 224.875 543.902344 L 224.875 520.371094 Z M 154.726562 520.371094 L 204.46875 520.371094 L 204.46875 547.757812 L 154.726562 557.15625 Z M 286.097656 532.320312 L 265.691406 536.179688 L 265.691406 520.371094 L 286.097656 520.371094 Z M 286.097656 532.320312 " style=" stroke:none;fill-rule:nonzero;fill:rgb(29.019608%,61.568627%,85.098039%);fill-opacity:1;"/>
    <path d="M 287.371094 499.964844 L 287.371094 549.238281 L 459.554688 581.796875 L 459.554688 499.964844 Z M 369 520.371094 L 369 543.902344 L 348.59375 540.042969 L 348.59375 520.371094 Z M 439.148438 557.15625 L 389.40625 547.757812 L 389.40625 520.371094 L 439.148438 520.371094 Z M 307.777344 520.371094 L 328.1875 520.371094 L 328.1875 536.179688 L 307.777344 532.320312 Z M 307.777344 520.371094 " style=" stroke:none;fill-rule:nonzero;fill:rgb(29.019608%,61.568627%,85.098039%);fill-opacity:1;"/>
    <path d="M 449.351562 295.898438 L 143.25 295.898438 L 143.25 234.679688 L 449.351562 234.679688 Z M 163.65625 275.492188 L 428.945312 275.492188 L 428.945312 255.085938 L 163.65625 255.085938 Z M 163.65625 275.492188 " style=" stroke:none;fill-rule:nonzero;fill:rgb(29.019608%,61.568627%,85.098039%);fill-opacity:1;"/>
    <path d="M 326.910156 295.898438 L 265.691406 295.898438 L 265.691406 234.679688 L 326.910156 234.679688 Z M 286.097656 275.492188 L 306.503906 275.492188 L 306.503906 255.085938 L 286.097656 255.085938 Z M 286.097656 275.492188 " style=" stroke:none;fill-rule:nonzero;fill:rgb(29.019608%,61.568627%,85.098039%);fill-opacity:1;"/>
    <path d="M 224.875 244.882812 L 245.28125 244.882812 L 245.28125 285.695312 L 224.875 285.695312 Z M 224.875 244.882812 " style=" stroke:none;fill-rule:nonzero;fill:rgb(29.019608%,61.568627%,85.098039%);fill-opacity:1;"/>
    <path d="M 184.0625 244.882812 L 204.46875 244.882812 L 204.46875 285.695312 L 184.0625 285.695312 Z M 184.0625 244.882812 " style=" stroke:none;fill-rule:nonzero;fill:rgb(29.019608%,61.568627%,85.098039%);fill-opacity:1;"/>
    <path d="M 347.316406 244.882812 L 367.722656 244.882812 L 367.722656 285.695312 L 347.316406 285.695312 Z M 347.316406 244.882812 " style=" stroke:none;fill-rule:nonzero;fill:rgb(29.019608%,61.568627%,85.098039%);fill-opacity:1;"/>
    <path d="M 388.128906 244.882812 L 408.539062 244.882812 L 408.539062 285.695312 L 388.128906 285.695312 Z M 388.128906 244.882812 " style=" stroke:none;fill-rule:nonzero;fill:rgb(29.019608%,61.568627%,85.098039%);fill-opacity:1;"/>
    <path d="M 20.808594 193.863281 L 163.65625 193.863281 L 163.65625 510.167969 L 20.808594 510.167969 Z M 20.808594 193.863281 " style=" stroke:none;fill-rule:nonzero;fill:rgb(81.568627%,84.313725%,87.45098%);fill-opacity:1;"/>
    <path d="M 122.84375 132.644531 L 92.230469 40.8125 L 61.621094 132.644531 L 61.621094 193.863281 L 122.84375 193.863281 Z M 122.84375 132.644531 " style=" stroke:none;fill-rule:nonzero;fill:rgb(29.019608%,61.568627%,85.098039%);fill-opacity:1;"/>
    <path d="M 82.027344 0 L 102.4375 0 L 102.4375 71.421875 L 82.027344 71.421875 Z M 82.027344 0 " style=" stroke:none;fill-rule:nonzero;fill:rgb(81.568627%,84.313725%,87.45098%);fill-opacity:1;"/>
    <path d="M 41.214844 71.421875 L 20.808594 132.644531 L 20.808594 193.863281 L 61.621094 193.863281 L 61.621094 132.644531 Z M 41.214844 71.421875 " style=" stroke:none;fill-rule:nonzero;fill:rgb(29.019608%,61.568627%,85.098039%);fill-opacity:1;"/>
    <path d="M 31.011719 40.8125 L 51.417969 40.8125 L 51.417969 102.035156 L 31.011719 102.035156 Z M 31.011719 40.8125 " style=" stroke:none;fill-rule:nonzero;fill:rgb(81.568627%,84.313725%,87.45098%);fill-opacity:1;"/>
    <path d="M 143.25 71.421875 L 122.84375 132.644531 L 122.84375 193.863281 L 163.65625 193.863281 L 163.65625 132.644531 Z M 143.25 71.421875 " style=" stroke:none;fill-rule:nonzero;fill:rgb(29.019608%,61.568627%,85.098039%);fill-opacity:1;"/>
    <path d="M 133.046875 40.8125 L 153.453125 40.8125 L 153.453125 102.035156 L 133.046875 102.035156 Z M 133.046875 40.8125 " style=" stroke:none;fill-rule:nonzero;fill:rgb(81.568627%,84.313725%,87.45098%);fill-opacity:1;"/>
    <path d="M 20.808594 275.492188 L 163.65625 275.492188 L 163.65625 295.898438 L 20.808594 295.898438 Z M 20.808594 275.492188 " style=" stroke:none;fill-rule:nonzero;fill:rgb(76.470588%,78.823529%,81.960784%);fill-opacity:1;"/>
    <path d="M 20.808594 367.320312 L 163.65625 367.320312 L 163.65625 387.730469 L 20.808594 387.730469 Z M 20.808594 367.320312 " style=" stroke:none;fill-rule:nonzero;fill:rgb(76.470588%,78.823529%,81.960784%);fill-opacity:1;"/>
    <path d="M 102.4375 224.472656 L 122.84375 224.472656 L 122.84375 255.085938 L 102.4375 255.085938 Z M 102.4375 224.472656 " style=" stroke:none;fill-rule:nonzero;fill:rgb(47.45098%,55.294118%,63.137255%);fill-opacity:1;"/>
    <path d="M 61.621094 224.472656 L 82.027344 224.472656 L 82.027344 255.085938 L 61.621094 255.085938 Z M 61.621094 224.472656 " style=" stroke:none;fill-rule:nonzero;fill:rgb(47.45098%,55.294118%,63.137255%);fill-opacity:1;"/>
    <path d="M 102.4375 316.304688 L 122.84375 316.304688 L 122.84375 346.914062 L 102.4375 346.914062 Z M 102.4375 316.304688 " style=" stroke:none;fill-rule:nonzero;fill:rgb(47.45098%,55.294118%,63.137255%);fill-opacity:1;"/>
    <path d="M 61.621094 316.304688 L 82.027344 316.304688 L 82.027344 346.914062 L 61.621094 346.914062 Z M 61.621094 316.304688 " style=" stroke:none;fill-rule:nonzero;fill:rgb(47.45098%,55.294118%,63.137255%);fill-opacity:1;"/>
    <path d="M 102.4375 448.949219 L 122.84375 448.949219 L 122.84375 479.558594 L 102.4375 479.558594 Z M 102.4375 448.949219 " style=" stroke:none;fill-rule:nonzero;fill:rgb(47.45098%,55.294118%,63.137255%);fill-opacity:1;"/>
    <path d="M 61.621094 448.949219 L 82.027344 448.949219 L 82.027344 479.558594 L 61.621094 479.558594 Z M 61.621094 448.949219 " style=" stroke:none;fill-rule:nonzero;fill:rgb(47.45098%,55.294118%,63.137255%);fill-opacity:1;"/>
    <path d="M 61.621094 408.136719 L 82.027344 408.136719 L 82.027344 428.542969 L 61.621094 428.542969 Z M 61.621094 408.136719 " style=" stroke:none;fill-rule:nonzero;fill:rgb(47.45098%,55.294118%,63.137255%);fill-opacity:1;"/>
    <path d="M 102.4375 408.136719 L 122.84375 408.136719 L 122.84375 428.542969 L 102.4375 428.542969 Z M 102.4375 408.136719 " style=" stroke:none;fill-rule:nonzero;fill:rgb(47.45098%,55.294118%,63.137255%);fill-opacity:1;"/>
    <path d="M 92.230469 132.644531 L 61.621094 193.863281 L 122.84375 193.863281 Z M 92.230469 132.644531 " style=" stroke:none;fill-rule:nonzero;fill:rgb(81.568627%,84.313725%,87.45098%);fill-opacity:1;"/>
    <path d="M 0.402344 499.964844 L 173.859375 499.964844 L 173.859375 602 L 0.402344 602 Z M 0.402344 499.964844 " style=" stroke:none;fill-rule:nonzero;fill:rgb(81.568627%,84.313725%,87.45098%);fill-opacity:1;"/>
    <path d="M 0.402344 520.371094 L 173.859375 520.371094 L 173.859375 540.78125 L 0.402344 540.78125 Z M 0.402344 520.371094 " style=" stroke:none;fill-rule:nonzero;fill:rgb(76.470588%,78.823529%,81.960784%);fill-opacity:1;"/>
    <path d="M 428.945312 193.863281 L 571.792969 193.863281 L 571.792969 510.167969 L 428.945312 510.167969 Z M 428.945312 193.863281 " style=" stroke:none;fill-rule:nonzero;fill:rgb(81.568627%,84.313725%,87.45098%);fill-opacity:1;"/>
    <path d="M 530.976562 132.644531 L 500.367188 40.8125 L 469.757812 132.644531 L 469.757812 193.863281 L 530.976562 193.863281 Z M 530.976562 132.644531 " style=" stroke:none;fill-rule:nonzero;fill:rgb(29.019608%,61.568627%,85.098039%);fill-opacity:1;"/>
    <path d="M 490.164062 0 L 510.570312 0 L 510.570312 71.421875 L 490.164062 71.421875 Z M 490.164062 0 " style=" stroke:none;fill-rule:nonzero;fill:rgb(81.568627%,84.313725%,87.45098%);fill-opacity:1;"/>
    <path d="M 449.351562 71.421875 L 428.945312 132.644531 L 428.945312 193.863281 L 469.757812 193.863281 L 469.757812 132.644531 Z M 449.351562 71.421875 " style=" stroke:none;fill-rule:nonzero;fill:rgb(29.019608%,61.568627%,85.098039%);fill-opacity:1;"/>
    <path d="M 439.148438 40.8125 L 459.554688 40.8125 L 459.554688 102.035156 L 439.148438 102.035156 Z M 439.148438 40.8125 " style=" stroke:none;fill-rule:nonzero;fill:rgb(81.568627%,84.313725%,87.45098%);fill-opacity:1;"/>
    <path d="M 551.382812 71.421875 L 530.976562 132.644531 L 530.976562 193.863281 L 571.792969 193.863281 L 571.792969 132.644531 Z M 551.382812 71.421875 " style=" stroke:none;fill-rule:nonzero;fill:rgb(29.019608%,61.568627%,85.098039%);fill-opacity:1;"/>
    <path d="M 541.179688 40.8125 L 561.589844 40.8125 L 561.589844 102.035156 L 541.179688 102.035156 Z M 541.179688 40.8125 " style=" stroke:none;fill-rule:nonzero;fill:rgb(81.568627%,84.313725%,87.45098%);fill-opacity:1;"/>
    <path d="M 428.945312 275.492188 L 571.792969 275.492188 L 571.792969 295.898438 L 428.945312 295.898438 Z M 428.945312 275.492188 " style=" stroke:none;fill-rule:nonzero;fill:rgb(76.470588%,78.823529%,81.960784%);fill-opacity:1;"/>
    <path d="M 428.945312 367.320312 L 571.792969 367.320312 L 571.792969 387.730469 L 428.945312 387.730469 Z M 428.945312 367.320312 " style=" stroke:none;fill-rule:nonzero;fill:rgb(76.470588%,78.823529%,81.960784%);fill-opacity:1;"/>
    <path d="M 510.570312 224.472656 L 530.976562 224.472656 L 530.976562 255.085938 L 510.570312 255.085938 Z M 510.570312 224.472656 " style=" stroke:none;fill-rule:nonzero;fill:rgb(47.45098%,55.294118%,63.137255%);fill-opacity:1;"/>
    <path d="M 469.757812 224.472656 L 490.164062 224.472656 L 490.164062 255.085938 L 469.757812 255.085938 Z M 469.757812 224.472656 " style=" stroke:none;fill-rule:nonzero;fill:rgb(47.45098%,55.294118%,63.137255%);fill-opacity:1;"/>
    <path d="M 510.570312 316.304688 L 530.976562 316.304688 L 530.976562 346.914062 L 510.570312 346.914062 Z M 510.570312 316.304688 " style=" stroke:none;fill-rule:nonzero;fill:rgb(47.45098%,55.294118%,63.137255%);fill-opacity:1;"/>
    <path d="M 469.757812 316.304688 L 490.164062 316.304688 L 490.164062 346.914062 L 469.757812 346.914062 Z M 469.757812 316.304688 " style=" stroke:none;fill-rule:nonzero;fill:rgb(47.45098%,55.294118%,63.137255%);fill-opacity:1;"/>
    <path d="M 510.570312 448.949219 L 530.976562 448.949219 L 530.976562 479.558594 L 510.570312 479.558594 Z M 510.570312 448.949219 " style=" stroke:none;fill-rule:nonzero;fill:rgb(47.45098%,55.294118%,63.137255%);fill-opacity:1;"/>
    <path d="M 469.757812 448.949219 L 490.164062 448.949219 L 490.164062 479.558594 L 469.757812 479.558594 Z M 469.757812 448.949219 " style=" stroke:none;fill-rule:nonzero;fill:rgb(47.45098%,55.294118%,63.137255%);fill-opacity:1;"/>
    <path d="M 469.757812 408.136719 L 490.164062 408.136719 L 490.164062 428.542969 L 469.757812 428.542969 Z M 469.757812 408.136719 " style=" stroke:none;fill-rule:nonzero;fill:rgb(47.45098%,55.294118%,63.137255%);fill-opacity:1;"/>
    <path d="M 510.570312 408.136719 L 530.976562 408.136719 L 530.976562 428.542969 L 510.570312 428.542969 Z M 510.570312 408.136719 " style=" stroke:none;fill-rule:nonzero;fill:rgb(47.45098%,55.294118%,63.137255%);fill-opacity:1;"/>
    <path d="M 500.367188 132.644531 L 469.757812 193.863281 L 530.976562 193.863281 Z M 500.367188 132.644531 " style=" stroke:none;fill-rule:nonzero;fill:rgb(81.568627%,84.313725%,87.45098%);fill-opacity:1;"/>
    <path d="M 418.742188 499.964844 L 592.199219 499.964844 L 592.199219 602 L 418.742188 602 Z M 418.742188 499.964844 " style=" stroke:none;fill-rule:nonzero;fill:rgb(81.568627%,84.313725%,87.45098%);fill-opacity:1;"/>
    <path d="M 418.742188 520.371094 L 592.199219 520.371094 L 592.199219 540.78125 L 418.742188 540.78125 Z M 418.742188 520.371094 " style=" stroke:none;fill-rule:nonzero;fill:rgb(76.470588%,78.823529%,81.960784%);fill-opacity:1;"/>
  </g>
  <g transform="matrix(0.254436, 0, 0, 0.254436, 362.228552, 43.707497)">
    <g>
      <path d="m319.34 327.379v172.914l115-10v-45l-4.46-7 4.46-8v-45l-4-7 4-8v-22.914c0-3.823.335-7.139.859-10z" fill="#f4daa7"/>
      <path d="m329.34 445.292h105v-15h-105v-45h105v-15h-105v-32.914h105.859c1.968-10.734 6.641-15 6.641-15l-68.915-65-66.085 65s7.5 6.835 7.5 25v157.914h120v-15h-105z" fill="#f0c87e"/>
      <path d="m405.152 132.379-8.37-17 8.37-13s-23.171-32.39-30.813-81.879c-7.641 49.489-30.812 81.879-30.812 81.879l8.37 13-8.37 17-29.188 30 60 15 60-15z" fill="#5f6c75"/>
      <path d="m441.84 192.379h-7.5l-10-7.56 10-7.44v-15h-105l-15 30-10 125 145-10v-107.5c0-4.142-3.358-7.5-7.5-7.5z" fill="#f8e7c7"/>
      <path d="m314.34 304.628v-112.249h-7.5c-4.142 0-7.5 3.358-7.5 7.5v115c0 4.142 3.358 7.5 7.5 7.5h135c4.142 0 7.5-3.358 7.5-7.5v-7.5h-132.25c-1.519 0-2.75-1.232-2.75-2.751z" fill="#f4daa7"/>
      <path d="m329.34 162.379h-15v30h120v-15h-101.5c-1.933 0-3.5-1.567-3.5-3.5z" fill="#f4daa7"/>
      <path d="m405.152 117.379-53.255 5 6.63-20h46.625z" fill="#f8e7c7"/>
      <path d="m358.527 102.379h-15v30h61.625v-15h-43.125c-1.933 0-3.5-1.567-3.5-3.5z" fill="#f4daa7"/>
      <path d="m411.84 292.379h-75c-4.142 0-7.5-3.358-7.5-7.5v-75c0-4.142 3.358-7.5 7.5-7.5h75c4.142 0 7.5 3.358 7.5 7.5v75c0 4.142-3.358 7.5-7.5 7.5z" fill="#cf9875"/>
      <path d="m374.34 202.379c-9.617 0-18.522 3.026-25.835 8.165-5.139 7.313-12.165 20.218-12.165 29.835 0 24.853 20.147 45 45 45 9.617 0 22.522-7.026 29.835-12.165 5.139-7.313 8.165-16.218 8.165-25.835 0-24.853-20.147-45-45-45z" fill="#e9edf1"/>
      <path d="m340.34 236.379c0-9.617 3.027-18.522 8.165-25.835-11.586 8.141-19.165 21.599-19.165 36.835 0 24.853 20.147 45 45 45 15.236 0 28.694-7.579 36.835-19.165-7.313 5.139-16.218 8.165-25.835 8.165-24.853 0-45-20.147-45-45z" fill="#c8d2dc"/>
      <path d="m264.34 445.292s-16.92-32.39-22.5-81.879c-5.58 49.489-22.5 81.879-22.5 81.879l22.5 11.323z" fill="#5f6c75"/>
      <path d="m148.452 445.292s-16.92-32.39-22.5-81.879c-5.58 49.489-22.5 81.879-22.5 81.879l22.5 11.323z" fill="#5f6c75"/>
      <path d="m118.452 505.292h31.437l33.697-7.441 50.754 7.441h29.999l.001-60h-30l-10.103 49.619-75.785-19.619v-30h-30l-10 30.124z" fill="#f8e7c7"/>
      <path d="m118.452 445.292v60h-15v-60zm100.888 0v30l-7.377 3-7.623-3h-55.888v30h55.888l5.85-2 9.15 2h15v-60z" fill="#f4daa7"/>
      <path d="m204.34 475.292h15v30h-15z" fill="#f0c87e"/>
    </g>
    <g>
      <g>
        <path d="m434.34 512.792c-4.143 0-7.5-3.358-7.5-7.5v-52.5h-25v52.5c0 4.142-3.357 7.5-7.5 7.5s-7.5-3.358-7.5-7.5v-52.5h-25v52.5c0 4.142-3.357 7.5-7.5 7.5s-7.5-3.358-7.5-7.5v-52.5h-25v52.5c0 4.142-3.357 7.5-7.5 7.5h-50.001c-1.989 0-3.896-.79-5.304-2.197-1.406-1.407-2.196-3.314-2.196-5.303l.001-52.5h-30l-.001 52.5c0 4.142-3.358 7.5-7.5 7.5-4.143 0-7.5-3.358-7.5-7.5v-22.5h-20.443v22.5c0 4.142-3.357 7.5-7.5 7.5s-7.5-3.358-7.5-7.5v-22.5h-20.443v22.5c0 4.142-3.357 7.5-7.5 7.5s-7.5-3.358-7.5-7.5v-52.5h-30v52.5c0 4.142-3.357 7.5-7.5 7.5h-40c-4.143 0-7.5-3.358-7.5-7.5s3.357-7.5 7.5-7.5h32.5v-52.5c0-1.209.292-2.401.853-3.473.158-.306 16.262-31.716 21.647-78.831v-12.575c0-4.142 3.357-7.5 7.5-7.5s7.5 3.358 7.5 7.5v12.576c5.386 47.115 21.488 78.525 21.651 78.837.555 1.068.849 2.262.849 3.466v22.5h20.443v-22.5c0-4.142 3.357-7.5 7.5-7.5s7.5 3.358 7.5 7.5v22.5h20.444v-22.5c0-.007 0-.015 0-.022 0-.001 0-.002 0-.004 0-.006 0-.013 0-.02 0-.002 0-.005 0-.007 0-.004 0-.009 0-.014s0-.011 0-.017c0-.001 0-.002.001-.003.014-1.255.336-2.436.895-3.47.929-1.832 16.355-32.832 21.604-78.747v-12.576c0-4.142 3.357-7.5 7.5-7.5s7.5 3.358 7.5 7.5v12.575c5.244 45.881 20.652 76.869 21.606 78.75.562 1.042.884 2.232.894 3.497v.002.012.018.005.021l-.001 52.5h35.001v-150.413c0-10.015-2.533-15.596-4.07-18.061-6.3-1.778-10.93-7.578-10.93-14.439v-115c0-8.271 6.729-15 15-15v-22.5c0-1.954.762-3.83 2.124-5.23l27.063-27.816v-26.954c0-1.565.489-3.091 1.4-4.364.215-.303 22.071-31.446 29.412-78.096v-12.419c0-4.142 3.357-7.5 7.5-7.5s7.5 3.358 7.5 7.5v12.419c7.34 46.65 29.196 77.793 29.417 78.104.903 1.27 1.395 2.797 1.395 4.356v26.954l27.064 27.816c1.361 1.4 2.124 3.276 2.124 5.23v22.5c8.271 0 15 6.729 15 15v27.5c0 4.142-3.357 7.5-7.5 7.5s-7.5-3.358-7.5-7.5v-27.5h-21.318c-4.143 0-7.5-3.358-7.5-7.5s3.357-7.5 7.5-7.5h6.318v-15h-105v15h6.317c4.143 0 7.5 3.358 7.5 7.5s-3.357 7.5-7.5 7.5h-21.316v115h135v-57.5c0-4.142 3.357-7.5 7.5-7.5s7.5 3.358 7.5 7.5v57.5c0 6.861-4.63 12.661-10.93 14.439-1.537 2.465-4.07 8.046-4.07 18.061v157.914c0 4.142-3.357 7.499-7.5 7.499zm-32.5-75h25v-45h-25v4.56c0 4.142-3.357 7.5-7.5 7.5s-7.5-3.358-7.5-7.5v-4.56h-25v45h25v-10.44c0-4.142 3.357-7.5 7.5-7.5s7.5 3.358 7.5 7.5zm-80 0h25v-45h-25zm-90.903 0h21.806c-3.108-7.593-7.209-18.879-10.902-33.154-3.695 14.276-7.795 25.562-10.904 33.154zm-115.888 0h21.807c-3.109-7.593-7.209-18.88-10.903-33.155-3.695 14.276-7.795 25.563-10.904 33.155zm286.791-60h25v-30.414c0-7.228 1.071-13.002 2.513-17.5h-110.026c1.441 4.498 2.513 10.272 2.513 17.5v30.414h25v-25.414c0-4.142 3.357-7.5 7.5-7.5s7.5 3.358 7.5 7.5v25.414h25v-25.414c0-4.142 3.357-7.5 7.5-7.5s7.5 3.358 7.5 7.5zm45.213-50.022c-.001 0-.001 0 0 0zm-114.952-172.891h84.478l-14.594-15h-7.645c-4.143 0-7.5-3.358-7.5-7.5s3.357-7.5 7.5-7.5h3.312v-15h-46.624v15h13.313c4.143 0 7.5 3.358 7.5 7.5s-3.357 7.5-7.5 7.5h-17.646zm24.805-60h34.868c-5.066-9.146-11.874-23.246-17.434-41.188-5.56 17.942-12.368 32.041-17.434 41.188zm17.434 205c-17.39 0-32.831-8.498-42.391-21.56-.137-.162-.269-.331-.394-.507-.121-.169-.233-.342-.338-.518-5.91-8.493-9.378-18.807-9.378-29.916 0-28.949 23.552-52.5 52.5-52.5s52.5 23.551 52.5 52.5-23.551 52.501-52.499 52.501zm-25.579-25.102c6.705 6.263 15.702 10.102 25.579 10.102 20.678 0 37.5-16.822 37.5-37.5 0-18.109-12.904-33.262-30-36.747v22.207l.973-.692c3.379-2.402 8.059-1.61 10.459 1.764 2.401 3.375 1.611 8.058-1.764 10.458l-9.668 6.877v6.132c0 4.142-3.357 7.5-7.5 7.5-2.754 0-5.162-1.485-6.466-3.697zm18.079-64.145c-17.096 3.485-30 18.637-30 36.747 0 5.402 1.148 10.541 3.213 15.185l26.787-19.055z"/>
      </g>
    </g>
  </g>
  <g transform="matrix(0.197345, 0, 0, 0.197345, 35.967915, 194.814853)">
    <path d="m384.747 32.562c-1.772-1.329-44.386-32.562-128.749-32.562-6.047 0-12.097.164-17.982.489-4.136.228-7.304 3.766-7.075 7.901.227 4.135 3.754 7.296 7.901 7.075 5.611-.308 11.384-.465 17.156-.465 66.832 0 106.052 20.98 116.749 27.594v35.038h-233.498v-35.043c7.771-4.819 30.512-17.201 67.759-23.578 4.083-.699 6.826-4.575 6.127-8.658-.699-4.082-4.577-6.827-8.658-6.127-50.533 8.651-76.161 27.537-77.228 28.337-1.889 1.417-3 3.64-3 6v77.64c0 4.143 3.357 7.5 7.5 7.5h8.031v342.231h-8.031c-4.143 0-7.5 3.357-7.5 7.5v31.062c0 4.143 3.357 7.5 7.5 7.5h248.498c4.143 0 7.5-3.357 7.5-7.5v-31.062c0-4.143-3.357-7.5-7.5-7.5h-8.031v-209.124c0-4.143-3.357-7.5-7.5-7.5s-7.5 3.357-7.5 7.5v209.124h-202.436v-342.232h202.436v100.422c0 4.143 3.357 7.5 7.5 7.5s7.5-3.357 7.5-7.5v-100.422h8.031c4.143 0 7.5-3.357 7.5-7.5v-77.64c0-2.36-1.111-4.583-3-6zm-12 448.372v16.062h-233.498v-16.062zm0-372.232h-233.498v-16.07h233.498z"/>
    <path d="m341.153 147.28c0-4.143-3.357-7.5-7.5-7.5h-155.31c-4.143 0-7.5 3.357-7.5 7.5v232.967c0 4.143 3.357 7.5 7.5 7.5h155.311c4.143 0 7.5-3.357 7.5-7.5v-232.967zm-103.54 178.873v-31.593h36.77v31.593zm36.77 15v31.594h-36.77v-31.594zm0-139.779v31.593h-36.77v-31.593zm-36.77-15v-31.594h36.77v31.594zm0 61.593h36.77v31.594h-36.77zm-15 31.594h-36.771v-31.594h36.771zm66.77-31.594h36.771v31.594h-36.771zm36.77-15h-36.771v-31.593h36.771zm-103.54 0h-36.771v-31.593h36.771zm-36.77 61.594h36.771v31.593h-36.771zm103.54 0h36.771v31.593h-36.771zm36.77-108.187h-36.771v-31.594h36.771zm-103.54-31.594v31.594h-36.771v-31.594zm-36.77 186.373h36.771v31.594h-36.771zm103.54 31.594v-31.594h36.771v31.594z"/>
    <path d="m272.342 434.855c-4.143 0-7.5 3.357-7.5 7.5s3.357 7.5 7.5 7.5h61.312c4.143 0 7.5-3.357 7.5-7.5v-31.062c0-4.143-3.357-7.5-7.5-7.5h-155.311c-4.143 0-7.5 3.357-7.5 7.5v31.062c0 4.143 3.357 7.5 7.5 7.5h61.312c4.143 0 7.5-3.357 7.5-7.5s-3.357-7.5-7.5-7.5h-53.812v-16.062h140.311v16.062z"/>
    <path d="m186.374 50.668c0 4.143 3.357 7.5 7.5 7.5h124.248c4.143 0 7.5-3.357 7.5-7.5s-3.357-7.5-7.5-7.5h-124.248c-4.143 0-7.5 3.357-7.5 7.5z"/>
  </g>
  <path d="M 492.19 302.508 L 490.039 304.699 L 492.19 306.492 L 492.19 308.484 C 492.19 311.791 489.521 314.461 486.214 314.461 L 430.167 314.461 C 426.86 314.461 424.19 311.791 424.19 308.484 L 424.19 302.508 L 427.179 300.436 L 424.19 298.523 L 424.19 272.625 C 424.19 269.317 426.86 266.648 430.167 266.648 L 436.144 266.648 C 436.144 266.967 438.176 268.88 440.128 270.712 L 440.128 274.617 L 482.509 274.617 L 487.648 278.601 L 488.963 282.586 L 483.544 291.71 L 492.19 298.523 Z M 492.19 302.508" fill="#e63950"/>
  <g fill="#cc2e43" transform="matrix(0.132813, 0, 0, 0.132813, 424.19065, 266.648503)">
    <path d="m512 270-16.199219 16.5 16.199219 13.5v15c0 24.898438-20.097656 45-45 45h-272v-300h244.101562l38.699219 30 9.898438 30-40.800781 68.699219 65.101562 51.300781zm0 0"/>
    <path d="m477.800781 90h-372.800781c-8.402344 0-15-6.601562-15-15v-75h347c6.300781 0 12.300781 4.199219 14.097656 10.199219l6.601563 19.800781-17.699219 15.597656 27.902344 14.402344zm0 0"/>
    <path d="m512 210v30h-105c-3.898438 0-7.800781-1.5-10.5-4.5l-25.800781-25.5h-370.699219v-90h487.699219l9.902343 30-33.601562 36.300781zm0 0"/>
  </g>
  <path d="M 487.648 278.601 L 450.089 278.601 L 450.089 266.648 L 482.23 266.648 C 483.066 266.648 483.863 267.206 484.102 268.003 L 484.979 270.633 L 482.628 272.704 L 486.334 274.617 Z M 487.648 278.601" fill="#ae2538"/>
  <path d="M 492.19 294.539 L 492.19 298.523 L 478.245 298.523 C 477.727 298.523 477.209 298.324 476.851 297.926 L 473.424 294.539 L 450.089 294.539 L 450.089 282.586 L 488.963 282.586 L 490.278 286.57 L 485.815 291.391 Z M 492.19 294.539" fill="#ae2538"/>
  <path d="M 492.19 302.508 L 492.19 306.492 L 486.214 306.492 C 485.098 306.492 484.222 305.615 484.222 304.5 C 484.222 303.384 485.098 302.508 486.214 302.508 Z M 492.19 302.508" fill="#c6e2e7"/>
  <path d="M 468.284 300.515 C 468.284 301.631 467.408 302.508 466.292 302.508 L 424.19 302.508 L 424.19 298.523 L 466.292 298.523 C 467.408 298.523 468.284 299.399 468.284 300.515 Z M 468.284 300.515" fill="#ffa78f"/>
  <path d="M 438.136 306.492 C 434.828 306.492 432.159 309.161 432.159 312.469 C 432.159 315.727 434.821 318.445 438.136 318.445 C 440.744 318.445 443.003 316.714 443.754 314.461 C 443.992 313.823 444.112 313.186 444.112 312.469 C 444.112 309.109 441.341 306.492 438.136 306.492 Z M 438.136 306.492" fill="#4a696f"/>
  <path d="M 438.136 314.461 C 437.018 314.461 436.144 313.523 436.144 312.469 C 436.144 311.369 437.036 310.476 438.136 310.476 C 439.231 310.476 440.128 311.428 440.128 312.469 C 440.128 313.515 439.218 314.461 438.136 314.461 Z M 438.136 314.461" fill="#deecf1"/>
  <path d="M 450.089 306.492 C 446.901 306.492 444.112 309.122 444.112 312.469 C 444.112 313.186 444.232 313.823 444.471 314.461 C 445.228 316.732 447.499 318.445 450.089 318.445 C 453.396 318.445 456.065 315.736 456.065 312.469 C 456.065 309.161 453.396 306.492 450.089 306.492 Z M 450.089 306.492" fill="#4a696f"/>
  <path d="M 478.245 306.492 C 474.938 306.492 472.269 309.161 472.269 312.469 C 472.269 315.727 474.93 318.445 478.245 318.445 C 481.56 318.445 484.222 315.727 484.222 312.469 C 484.222 309.161 481.552 306.492 478.245 306.492 Z M 478.245 306.492" fill="#384949"/>
  <path d="M 478.245 314.461 C 477.127 314.461 476.253 313.523 476.253 312.469 C 476.253 311.369 477.146 310.476 478.245 310.476 C 479.344 310.476 480.237 311.369 480.237 312.469 C 480.237 313.478 479.374 314.461 478.245 314.461 Z M 478.245 314.461" fill="#c6e2e7"/>
  <path d="M 440.128 270.633 L 448.097 270.633 L 448.097 274.617 L 440.128 274.617 Z M 440.128 270.633" fill="#a8ebfa"/>
  <path d="M 452.081 270.633 L 460.183 270.633 L 460.183 274.617 L 452.081 274.617 Z M 452.081 270.633" fill="#76e2f8"/>
  <path d="M 464.167 270.633 L 472.269 270.633 L 472.269 274.617 L 464.167 274.617 Z M 464.167 270.633" fill="#76e2f8"/>
  <path d="M 486.334 274.617 L 476.253 274.617 L 476.253 270.633 L 484.979 270.633 Z M 486.334 274.617" fill="#76e2f8"/>
  <path d="M 428.175 286.57 L 436.144 286.57 L 436.144 290.554 L 428.175 290.554 Z M 428.175 286.57" fill="#a8ebfa"/>
  <path d="M 440.128 286.57 L 448.097 286.57 L 448.097 290.554 L 440.128 290.554 Z M 440.128 286.57" fill="#a8ebfa"/>
  <path d="M 452.081 286.57 L 460.183 286.57 L 460.183 290.554 L 452.081 290.554 Z M 452.081 286.57" fill="#76e2f8"/>
  <path d="M 464.167 286.57 L 472.269 286.57 L 472.269 290.554 L 464.167 290.554 Z M 464.167 286.57" fill="#76e2f8"/>
  <path d="M 492.19 292.547 L 492.19 294.539 L 479.082 294.539 L 476.253 291.71 L 476.253 286.57 L 490.278 286.57 L 492.071 291.909 C 492.151 292.108 492.19 292.347 492.19 292.547 Z M 492.19 292.547" fill="#76e2f8"/>
  <path d="M 468.284 300.515 C 468.284 301.631 467.408 302.508 466.292 302.508 L 450.089 302.508 L 450.089 298.523 L 466.292 298.523 C 467.408 298.523 468.284 299.399 468.284 300.515 Z M 468.284 300.515" fill="#f89580"/>
  <path d="M 456.065 312.469 C 456.065 315.736 453.396 318.445 450.089 318.445 L 450.089 306.492 C 453.396 306.492 456.065 309.161 456.065 312.469 Z M 456.065 312.469" fill="#384949"/>
  <path d="M 452.081 312.469 C 452.081 313.461 451.26 314.461 450.089 314.461 C 449.078 314.461 448.097 313.614 448.097 312.469 C 448.097 309.906 452.081 309.761 452.081 312.469 Z M 452.081 312.469" fill="#deecf1"/>
  <path d="M 452.081 312.469 C 452.081 313.461 451.26 314.461 450.089 314.461 L 450.089 310.476 C 451.205 310.476 452.081 311.353 452.081 312.469 Z M 452.081 312.469" fill="#c6e2e7"/>
  <path d="M 388.479 236.204 L 323.316 236.204 C 310.824 236.204 300.661 246.226 300.661 258.545 L 300.661 294.492 C 300.661 306.811 310.824 316.834 323.316 316.834 L 326.678 316.834 L 334.558 326.691 C 335.173 327.46 336.109 327.908 337.1 327.908 C 338.092 327.908 339.029 327.46 339.643 326.691 L 347.523 316.834 L 388.479 316.834 C 400.971 316.834 411.133 306.811 411.133 294.492 L 411.133 258.545 C 411.133 246.226 400.971 236.204 388.479 236.204 Z M 361.56 285.299 L 361.56 310.45 L 350.235 310.45 L 350.235 285.299 C 350.235 283.536 348.786 282.106 347 282.106 L 307.135 282.106 L 307.135 270.94 L 347 270.94 C 348.786 270.94 350.235 269.511 350.235 267.748 L 350.235 242.587 L 361.56 242.587 L 361.56 267.748 C 361.56 269.511 363.009 270.94 364.796 270.94 L 404.66 270.94 L 404.66 282.106 L 364.796 282.106 C 363.009 282.106 361.56 283.536 361.56 285.299 Z M 368.033 242.587 L 385.734 242.587 L 368.033 260.044 Z M 343.763 260.044 L 326.061 242.587 L 343.763 242.587 Z M 368.033 293.004 L 385.725 310.45 L 368.033 310.45 Z M 404.66 258.545 L 404.66 264.557 L 372.609 264.557 L 393.938 243.524 C 400.182 245.739 404.66 251.635 404.66 258.545 Z M 317.857 243.524 L 339.187 264.557 L 307.135 264.557 L 307.135 258.545 C 307.135 251.635 311.614 245.739 317.857 243.524 Z M 307.135 294.492 L 307.135 288.491 L 339.187 288.491 L 317.864 309.516 C 311.616 307.304 307.135 301.405 307.135 294.492 Z M 343.411 311.666 L 337.1 319.561 L 330.791 311.666 C 330.177 310.898 329.24 310.45 328.25 310.45 L 326.071 310.45 L 343.763 293.004 L 343.763 311.299 C 343.637 311.412 343.517 311.532 343.411 311.666 Z M 393.931 309.516 L 372.609 288.491 L 404.66 288.491 L 404.66 294.492 C 404.66 301.405 400.179 307.304 393.931 309.516 Z M 393.931 309.516" style="" transform="matrix(0, 1, -1, 0, 637.953012, -73.841012)"/>
  <path d="M 173.278 136.884 L 172.688 135.101 L 165.907 114.374 C 164.367 109.622 160.002 105.865 154.355 104.431 L 143.912 101.767 C 144.157 101.45 144.286 101.078 144.279 100.7 L 144.279 97.769 C 144.288 97.324 144.113 96.892 143.788 96.539 C 143.084 95.732 141.784 95.473 140.718 95.924 L 134.573 98.506 L 134.549 98.506 L 134.449 98.547 L 134.301 98.486 L 128.183 95.924 C 127.117 95.473 125.815 95.732 125.111 96.539 C 124.783 96.888 124.611 97.324 124.62 97.769 L 124.62 100.7 C 124.613 101.078 124.742 101.45 124.989 101.767 L 114.543 104.431 C 114.007 104.566 113.482 104.729 112.972 104.923 C 112.778 104.972 112.588 105.035 112.406 105.109 C 107.772 106.874 104.321 110.271 102.995 114.374 L 96.211 135.101 L 95.621 136.884 C 95.184 138.269 94.96 139.695 94.958 141.127 C 94.956 143.095 95.381 145.048 96.211 146.89 L 104.641 165.34 L 106.73 164.684 L 109.875 163.679 L 109.875 168.251 C 109.875 168.633 109.943 169.011 110.072 169.378 C 110.674 171.135 112.598 172.349 114.789 172.351 L 153.151 172.351 C 153.809 172.355 154.44 172.138 154.904 171.748 C 155.366 171.358 155.621 170.829 155.609 170.279 C 158.035 170.194 160.175 168.925 161.064 167.041 L 162.171 164.684 L 164.26 165.34 L 172.688 146.89 C 173.521 145.048 173.943 143.095 173.941 141.127 C 173.941 139.695 173.717 138.269 173.278 136.884 Z M 155.191 128.314 L 158.606 138.77 C 159.15 140.449 159.045 142.226 158.312 143.855 L 151.652 158.431 L 151.652 141.599 Z M 155.191 128.314" fill="#c03a2b" style=""/>
  <path d="M 122.311 86.165 C 122.284 86.165 122.238 86.145 122.211 86.145 C 119.33 85.675 117.251 83.571 117.247 81.121 L 117.247 67.798 C 117.247 62.668 120.525 57.93 125.849 55.369 C 131.171 52.805 137.728 52.805 143.052 55.369 C 148.373 57.93 151.652 62.668 151.652 67.798 L 151.652 81.121 C 151.647 83.571 149.568 85.675 146.688 86.145 C 146.664 86.145 146.615 86.165 146.591 86.165 Z M 122.311 86.165" fill="#2c2f38" style=""/>
  <path d="M 146.688 86.288 C 146.7 86.694 146.676 87.097 146.615 87.497 C 146.564 88.331 146.447 89.158 146.27 89.979 C 145.835 92.255 144.997 94.466 143.788 96.539 C 143.125 95.781 141.872 100.126 140.718 100.598 L 134.573 103.181 L 134.549 103.181 C 134.466 103.166 134.384 103.158 134.301 103.162 L 128.183 100.598 C 127.027 100.126 125.776 95.781 125.111 96.539 C 123.904 94.466 123.066 92.255 122.629 89.979 C 122.451 89.158 122.337 88.331 122.284 87.497 C 122.223 87.097 122.199 86.694 122.211 86.288 C 122.235 86.243 122.269 86.202 122.311 86.165 C 124.203 83.746 128.946 82.022 134.449 82.022 C 139.955 82.022 144.699 83.746 146.591 86.165 C 146.632 86.202 146.664 86.243 146.688 86.288 Z M 146.688 86.288" fill="#fdd7ad" style=""/>
  <g fill="#e64c3c" transform="matrix(0.278388, 0, 0, 0.232236, 94.959405, 53.447064)" style="">
    <path d="m141.859375 229.515625v150.070313h-52.964844v-141.242188c-.074219-9.71875-7.933593-17.582031-17.65625-17.652344-2.207031 0-4.394531.417969-6.445312 1.234375l-.085938-.265625c1.832031-.835937 3.71875-1.542968 5.648438-2.117187l37.519531-11.476563c.769531 1.183594 1.792969 2.179688 3 2.914063zm0 0"/>
    <path d="m64.792969 221.925781c-.667969.242188-1.316407.535157-1.941407.882813-5.691406 3.097656-9.246093 9.054687-9.269531 15.535156v236.316406l-11.296875 4.324219-7.503906 2.824219-30.277344-79.445313c-2.988281-7.929687-4.5156248-16.335937-4.503906-24.808593.00390625-6.167969.804688-12.308594 2.382812-18.273438l2.121094-7.679688 24.363282-89.246093c4.769531-17.667969 17.164062-32.296875 33.808593-39.898438.65625-.320312 1.335938-.585937 2.03125-.796875zm0 0"/>
    <path d="m141.859375 432.550781v79.449219h-57.910156c5.449219.003906 10.589843-2.507812 13.9375-6.804688 3.347656-4.296874 4.523437-9.894531 3.1875-15.175781l-12.179688-48.640625h44.136719c4.875 0 8.828125-3.953125 8.828125-8.828125zm0 0"/>
  </g>
  <path d="M 134.449 98.547 L 134.449 106.747 L 125.825 102.443 C 125.487 102.273 125.203 102.041 124.989 101.767 C 124.742 101.45 124.613 101.078 124.62 100.7 L 124.62 97.769 C 124.611 97.324 124.783 96.888 125.111 96.539 C 125.815 95.732 127.117 95.473 128.183 95.924 L 134.301 98.486 Z M 134.449 98.547" fill="#c03a2b" style=""/>
  <path d="M 110.072 169.378 C 109.062 168.806 108.28 167.991 107.835 167.041 L 106.73 164.684 L 109.875 163.679 L 109.875 168.251 C 109.875 168.633 109.943 169.011 110.072 169.378 Z M 110.072 169.378" fill="#fdd7ad" style=""/>
  <path d="M 144.279 97.769 L 144.279 100.7 C 144.286 101.078 144.157 101.45 143.912 101.767 C 143.696 102.041 143.411 102.273 143.076 102.443 L 134.449 106.747 L 134.449 98.547 L 134.549 98.506 L 134.573 98.506 L 140.718 95.924 C 141.784 95.473 143.084 95.732 143.788 96.539 C 144.113 96.892 144.288 97.324 144.279 97.769 Z M 144.279 97.769" fill="#802f34" style=""/>
  <path d="M 162.171 164.684 L 161.064 167.041 C 160.175 168.925 158.035 170.194 155.609 170.279 C 154.754 170.324 153.899 170.212 153.102 169.952 C 149.901 168.919 148.269 165.948 149.415 163.248 L 150.496 160.952 Z M 162.171 164.684" fill="#fdd7ad" style=""/>
  <path d="M 144.279 110.847 C 144.279 111.979 143.181 112.899 141.823 112.899 C 140.465 112.899 139.365 111.979 139.365 110.847 C 139.365 109.716 140.465 108.798 141.823 108.798 C 143.181 108.798 144.279 109.716 144.279 110.847 Z M 144.279 110.847" fill="#e4c05c" style=""/>
  <path d="M 144.279 116.999 C 144.279 118.13 143.181 119.048 141.823 119.048 C 140.465 119.048 139.365 118.13 139.365 116.999 C 139.365 115.867 140.465 114.95 141.823 114.95 C 143.181 114.95 144.279 115.867 144.279 116.999 Z M 144.279 116.999" fill="#f3d55b" style=""/>
  <path d="M 144.279 123.148 C 144.279 124.28 143.181 125.199 141.823 125.199 C 140.465 125.199 139.365 124.28 139.365 123.148 C 139.365 122.016 140.465 121.099 141.823 121.099 C 143.181 121.099 144.279 122.016 144.279 123.148 Z M 144.279 123.148" fill="#e4c05c" style=""/>
  <path d="M 144.279 129.299 C 144.279 130.431 143.181 131.35 141.823 131.35 C 140.465 131.35 139.365 130.431 139.365 129.299 C 139.365 128.167 140.465 127.248 141.823 127.248 C 143.181 127.248 144.279 128.167 144.279 129.299 Z M 144.279 129.299" fill="#f3d55b" style=""/>
  <path d="M 144.279 135.448 C 144.279 136.582 143.181 137.499 141.823 137.499 C 140.465 137.499 139.365 136.582 139.365 135.448 C 139.365 134.316 140.465 133.399 141.823 133.399 C 143.181 133.399 144.279 134.316 144.279 135.448 Z M 144.279 135.448" fill="#e4c05c" style=""/>
  <path d="M 151.652 141.599 L 151.652 149.799 L 134.449 149.799 C 134.449 148.668 133.349 147.75 131.992 147.75 L 119.707 147.75 L 119.707 141.599 Z M 151.652 141.599" fill="#bdc3c7" style=""/>
  <path d="M 134.449 149.799 L 134.449 153.899 C 134.449 155.033 133.349 155.951 131.992 155.951 L 119.707 155.951 L 119.707 147.75 L 131.992 147.75 C 133.349 147.75 134.449 148.668 134.449 149.799 Z M 134.449 149.799" fill="#7f8c8d" style=""/>
  <path d="M 112.331 110.847 C 110.976 110.847 109.875 109.93 109.875 108.798 L 109.875 75.996 C 109.875 74.864 110.976 73.947 112.331 73.947 C 113.688 73.947 114.789 74.864 114.789 75.996 L 114.789 108.798 C 114.789 109.93 113.688 110.847 112.331 110.847 Z M 112.331 110.847" fill="#35495e" style=""/>
  <path d="M 118.33 172.351 L 114.789 172.351 C 112.598 172.349 110.674 171.135 110.072 169.378 C 109.943 169.011 109.875 168.633 109.875 168.251 L 109.875 108.798 C 109.88 107.293 110.871 105.91 112.455 105.191 C 112.63 105.109 112.809 105.042 112.996 104.984 C 113.567 104.794 114.177 104.698 114.789 104.698 C 117.497 104.715 119.685 106.541 119.707 108.798 L 119.707 155.951 L 123.095 167.246 C 123.469 168.473 123.141 169.773 122.209 170.772 C 121.276 171.769 119.845 172.351 118.33 172.351 Z M 118.33 172.351" fill="#2c2f38" style=""/>
  <path d="M 110.072 169.378 C 109.062 168.806 108.28 167.991 107.835 167.041 L 106.73 164.684 L 109.875 163.679 L 109.875 168.251 C 109.875 168.633 109.943 169.011 110.072 169.378 Z M 110.072 169.378" fill="#fdd7ad" style=""/>
  <g transform="matrix(0.128939, 0, 0, 0.129119, 216.099384, 116.190553)" style="">
    <g>
      <path d="M390.162,114.172h-0.01c-5.523,0-9.995,4.477-9.995,10c0,5.523,4.482,10,10.005,10c5.523,0,10-4.477,10-10 C400.162,118.649,395.685,114.172,390.162,114.172z"/>
    </g>
  </g>
  <g transform="matrix(0.128939, 0, 0, 0.129119, 216.099384, 116.190553)" style="">
    <g>
      <path d="M502,171.501h-22.647C444.355,78.935,355.503,17.237,256,17.237c-99.504,0-188.355,61.699-223.352,154.265H10 c-5.523,0-10,4.477-10,10v148.995c0,5.523,4.477,10,10,10h22.647C67.645,433.063,156.497,494.762,256,494.762 s188.355-61.699,223.352-154.265h22.647c5.522,0,10-4.477,10-10V181.501C512,175.978,507.522,171.501,502,171.501z M256,37.237 c88.611,0,168.013,53.4,201.842,134.265h-83.218c-27.359-38.387-71.302-61.141-118.624-61.141s-91.263,22.754-118.624,61.141 h-38.21C130.133,114.151,190.198,77.823,256,77.823c34.111,0,67.28,9.712,95.924,28.085c4.65,2.982,10.834,1.631,13.816-3.018 c2.983-4.649,1.631-10.834-3.017-13.816C330.851,68.629,293.947,57.823,256,57.823c-76.763,0-146.503,44.436-179.239,113.679 H54.157C87.987,90.638,167.389,37.237,256,37.237z M348.986,171.501H163.015c23.638-26.046,57.192-41.141,92.986-41.141 C291.793,130.361,325.347,145.455,348.986,171.501z M256,474.761c-88.611,0-168.013-53.4-201.842-134.265h22.596 c32.735,69.318,102.239,113.679,179.247,113.679c5.523,0,10-4.477,10-10s-4.477-10-10-10c-66.017,0-125.906-36.267-156.851-93.679 h38.227c27.36,38.387,71.302,61.141,118.624,61.141c47.321,0,91.263-22.754,118.624-61.141h83.219 C424.013,421.36,344.611,474.761,256,474.761z M163.015,340.496h185.971c-23.638,26.046-57.192,41.141-92.986,41.141 C220.206,381.637,186.653,366.542,163.015,340.496z M491.999,320.496h-19.646c-0.003,0-0.005,0-0.008,0H369.356 c-0.003,0-0.005,0-0.008,0H142.652c-0.002,0-0.005,0-0.007,0H39.654c-0.003,0-0.005,0-0.008,0H20V191.501h19.646 c0.003,0,0.005,0.001,0.008,0.001h102.99c0.003,0,0.005-0.001,0.008-0.001h226.696c0.003,0,0.005,0.001,0.008,0.001h102.989 c0.003,0,0.005-0.001,0.008-0.001h19.646V320.496z"/>
    </g>
  </g>
  <g transform="matrix(0.128939, 0, 0, 0.129119, 216.099384, 116.190553)" style="">
    <g>
      <path d="M122.915,279.196h-23.35v-56.123c0-3.379-3.994-4.813-7.988-4.813s-7.988,1.434-7.988,4.813v65.136 c0,3.277,3.483,4.916,6.965,4.916h32.363c3.073,0,4.609-3.482,4.609-6.964C127.525,282.678,125.988,279.196,122.915,279.196z"/>
    </g>
  </g>
  <g transform="matrix(0.128939, 0, 0, 0.129119, 216.099384, 116.190553)" style="">
    <g>
      <path d="M157.122,218.259c-14.134,0-25.092,6.555-25.092,24.17v27.14c0,17.615,10.958,24.169,25.092,24.169 c14.133,0,25.194-6.555,25.194-24.169v-27.14C182.315,224.813,171.255,218.259,157.122,218.259z M166.339,269.569 c0,7.066-3.482,10.241-9.217,10.241c-5.736,0-9.115-3.175-9.115-10.241v-27.14c0-7.066,3.379-10.241,9.115-10.241 c5.735,0,9.217,3.175,9.217,10.241V269.569z"/>
    </g>
  </g>
  <g transform="matrix(0.128939, 0, 0, 0.129119, 216.099384, 116.190553)" style="">
    <g>
      <path d="M236.901,218.259c-3.994,0-7.988,1.434-7.988,4.813v34.821l-16.591-31.646c-3.892-7.477-6.042-7.988-11.778-7.988 c-3.994,0-7.988,1.536-7.988,4.916v65.034c0,3.277,3.994,4.916,7.988,4.916c3.994,0,7.988-1.639,7.988-4.916v-34.821 l19.459,35.436c1.946,3.584,5.223,4.301,8.91,4.301c3.994,0,7.988-1.639,7.988-4.916v-65.136 C244.889,219.692,240.895,218.259,236.901,218.259z"/>
    </g>
  </g>
  <g transform="matrix(0.128939, 0, 0, 0.129119, 216.099384, 116.190553)" style="">
    <g>
      <path d="M281.04,218.259h-18.127c-4.199,0-6.965,2.253-6.965,4.813v65.238c0,2.56,2.765,4.813,6.965,4.813h18.127 c14.134,0,25.195-6.554,25.195-24.17v-26.525C306.235,224.813,295.174,218.259,281.04,218.259z M290.258,268.955 c0,6.964-3.482,10.242-9.218,10.242h-9.115v-47.008h9.115c5.736,0,9.218,3.277,9.218,10.241V268.955z"/>
    </g>
  </g>
  <g transform="matrix(0.128939, 0, 0, 0.129119, 216.099384, 116.190553)" style="">
    <g>
      <path d="M340.645,218.259c-14.134,0-25.091,6.555-25.091,24.17v27.14c0,17.615,10.958,24.169,25.091,24.169 c14.133,0,25.194-6.555,25.194-24.169v-27.14C365.838,224.813,354.777,218.259,340.645,218.259z M349.862,269.569 c0,7.066-3.482,10.241-9.217,10.241c-5.736,0-9.115-3.175-9.115-10.241v-27.14c0-7.066,3.379-10.241,9.115-10.241 c5.735,0,9.217,3.175,9.217,10.241V269.569z"/>
    </g>
  </g>
  <g transform="matrix(0.128939, 0, 0, 0.129119, 216.099384, 116.190553)" style="">
    <g>
      <path d="M420.424,218.259c-3.994,0-7.988,1.434-7.988,4.813v34.821l-16.591-31.646c-3.892-7.477-6.042-7.988-11.778-7.988 c-3.994,0-7.989,1.536-7.989,4.916v65.034c0,3.277,3.994,4.916,7.989,4.916c3.994,0,7.988-1.639,7.988-4.916v-34.821l19.46,35.436 c1.946,3.584,5.223,4.301,8.91,4.301c3.994,0,7.988-1.639,7.988-4.916v-65.136C428.413,219.692,424.418,218.259,420.424,218.259z"/>
    </g>
  </g>
  <g transform="matrix(0.196641, 0, 0, 0.194874, 264.966679, 10.198823)" style="">
    <g>
      <g id="filled_outline_19_">
        <path style="fill:#69CCD7;" d="M558.13,158.209H54.928c-3.56,5.982-5.448,12.815-5.488,19.776v19.776h514.178v-19.776 C563.578,171.024,561.69,164.191,558.13,158.209z"/>
        <path style="fill:#DD381A;" d="M524.066,138.433H88.992c-14.071,0.03-27.064,7.574-34.064,19.776H558.13 C551.129,146.007,538.137,138.463,524.066,138.433z"/>
        <path style="fill:#DD381A;" d="M49.44,336.194l-28.616,14.308c-6.704,3.352-10.936,10.195-10.936,17.69v56.995h49.44 c0-16.384,13.28-29.664,29.664-29.664s29.664,13.28,29.664,29.664h276.865c0-16.384,13.28-29.664,29.664-29.664 s29.664,13.28,29.664,29.664h108.768V197.761H49.44V336.194z"/>
        <rect x="484.514" y="286.754" style="fill:#69CCD7;" width="79.104" height="128.544"/>
        <rect x="9.888" y="415.298" style="fill:#DD381A;" width="583.394" height="19.776"/>
        <rect x="138.433" y="197.761" style="fill:#F5AE45;" width="316.417" height="59.328"/>
        <rect x="138.433" y="237.313" style="fill:#F09E26;" width="316.417" height="19.776"/>
        <path style="fill:#C3C9D1;" d="M19.776,286.754H0V257.09c0-10.926,8.85-19.776,19.776-19.776H49.44v19.776H19.776V286.754z"/>
        <rect x="9.888" y="365.858" style="fill:#D0D7DF;" width="29.664" height="19.776"/>
        <circle style="fill:#697B8C;" cx="88.992" cy="425.186" r="29.664"/>
        <circle style="fill:#697B8C;" cx="425.186" cy="425.186" r="29.664"/>
        <polygon style="fill:#69CCD7;" points="148.321,286.754 128.545,257.09 49.44,257.09 49.44,336.194 444.962,336.194 &#10;&#9;&#9;&#9;&#9;444.962,286.754 &#9;&#9;&#9;"/>
        <rect x="49.44" y="316.418" style="fill:#61BDC7;" width="395.521" height="19.776"/>
        <rect x="49.44" y="177.985" style="fill:#61BDC7;" width="514.178" height="19.776"/>
        <rect x="484.514" y="395.522" style="fill:#61BDC7;" width="79.104" height="19.776"/>
        <rect x="29.664" y="237.313" style="fill:#B7BDC4;" width="19.776" height="19.776"/>
        <path d="M9.888,435.074h40.956c5.359,21.071,26.787,33.797,47.858,28.438c13.972-3.56,24.878-14.466,28.438-28.438h259.897 c5.359,21.071,26.787,33.797,47.858,28.438c13.972-3.56,24.878-14.466,28.438-28.438h129.949v-19.776h-19.776V177.985 c-0.03-27.291-22.149-49.41-49.44-49.44H88.992c-27.291,0.03-49.411,22.149-49.44,49.44v59.328H19.776 C8.85,237.313,0,246.163,0,257.09v29.664h19.776V257.09h19.776v72.993l-23.158,11.579C6.319,346.655-0.039,356.949,0,368.191 v56.995C0,430.644,4.43,435.074,9.888,435.074z M88.992,444.962c-10.926,0-19.776-8.85-19.776-19.776 c0-10.926,8.85-19.776,19.776-19.776s19.776,8.85,19.776,19.776C108.769,436.112,99.919,444.962,88.992,444.962z M425.186,444.962c-10.926,0-19.776-8.85-19.776-19.776c0-10.926,8.85-19.776,19.776-19.776s19.776,8.85,19.776,19.776 C444.962,436.112,436.112,444.962,425.186,444.962z M514.178,415.298h-19.776V296.642h19.776V415.298z M553.73,415.298h-19.776 V296.642h19.776V415.298z M464.738,148.321h59.328c16.384,0,29.664,13.28,29.664,29.664v9.888h-88.992V148.321z M464.738,207.649 h88.992v29.664h-88.992V207.649z M385.633,148.321h59.328v39.552h-59.328V148.321z M306.529,148.321h59.328v39.552h-59.328 V148.321z M227.425,148.321h59.328v39.552h-59.328V148.321z M148.321,148.321h59.328v39.552h-59.328V148.321z M148.321,207.649 h296.641v29.664H148.321V207.649z M59.328,177.985c0-16.384,13.28-29.664,29.664-29.664h39.552v39.552H59.328V177.985z M59.328,207.649h69.216v29.664H59.328V207.649z M59.328,257.09h54.384l24.72,32.957v36.259H59.328V257.09z M19.776,385.634 h19.776v-19.776h-19.45c0.662-2.828,2.551-5.211,5.142-6.506l26.53-13.27h393.188c5.458,0,9.888-4.43,9.888-9.888v-49.44 c0-5.458-4.43-9.888-9.888-9.888H153.265l-14.832-19.776H553.73v19.776h-69.216c-5.458,0-9.888,4.43-9.888,9.888v128.544h-11.134 c-0.396-1.345-0.87-2.66-1.404-3.955c-0.218-0.593-0.376-1.216-0.623-1.8c-0.939-2.175-2.076-4.262-3.392-6.229 c-0.287-0.425-0.643-0.791-0.939-1.206c-1.078-1.503-2.254-2.927-3.52-4.272c-0.583-0.593-1.216-1.117-1.829-1.681 c-1.127-1.058-2.314-2.047-3.55-2.966c-0.732-0.524-1.483-0.989-2.245-1.483c-1.276-0.801-2.591-1.513-3.955-2.156 c-0.811-0.386-1.612-0.771-2.452-1.107c-1.523-0.583-3.085-1.068-4.677-1.454c-0.771-0.198-1.503-0.445-2.284-0.593 c-4.895-0.999-9.938-0.999-14.832,0c-0.781,0.148-1.513,0.396-2.284,0.593c-1.592,0.386-3.154,0.87-4.677,1.454 c-0.84,0.336-1.641,0.722-2.452,1.107c-1.365,0.643-2.68,1.355-3.955,2.156c-0.761,0.475-1.513,0.989-2.245,1.483 c-1.236,0.92-2.423,1.908-3.55,2.966c-0.613,0.564-1.246,1.088-1.829,1.681c-1.266,1.345-2.442,2.769-3.52,4.272 c-0.297,0.415-0.653,0.781-0.939,1.206c-1.315,1.968-2.452,4.054-3.392,6.229c-0.247,0.583-0.405,1.206-0.623,1.8 c-0.534,1.295-1.009,2.61-1.404,3.955h-259.62c-0.396-1.345-0.87-2.66-1.404-3.955c-0.218-0.593-0.376-1.216-0.623-1.8 c-0.939-2.175-2.076-4.262-3.392-6.229c-0.287-0.425-0.643-0.791-0.989-1.206c-1.078-1.503-2.254-2.927-3.52-4.272 c-0.583-0.593-1.216-1.117-1.829-1.681c-1.127-1.058-2.314-2.047-3.55-2.966c-0.732-0.524-1.483-0.989-2.245-1.483 c-1.276-0.801-2.591-1.513-3.955-2.156c-0.811-0.386-1.612-0.771-2.452-1.107c-1.523-0.583-3.085-1.068-4.677-1.454 c-0.771-0.198-1.503-0.445-2.284-0.593c-4.895-0.999-9.937-0.999-14.832,0c-0.781,0.148-1.513,0.396-2.284,0.593 c-1.592,0.386-3.154,0.87-4.677,1.454c-0.84,0.336-1.641,0.722-2.452,1.107c-1.365,0.643-2.68,1.355-3.955,2.156 c-0.761,0.475-1.513,0.989-2.245,1.483c-1.236,0.92-2.423,1.908-3.55,2.966c-0.613,0.564-1.246,1.088-1.829,1.681 c-1.266,1.345-2.442,2.769-3.52,4.272c-0.297,0.415-0.653,0.781-0.939,1.206c-1.315,1.968-2.452,4.054-3.392,6.229 c-0.247,0.583-0.405,1.206-0.623,1.8c-0.534,1.295-1.009,2.61-1.404,3.955h-30.9V385.634z M158.209,326.306v-29.664h49.44v29.664 H158.209z M227.425,326.306v-29.664h59.328v29.664H227.425z M306.529,326.306v-29.664h59.328v29.664H306.529z M385.633,326.306 v-29.664h49.44v29.664H385.633z"/>
        <rect x="148.321" y="365.858" width="237.313" height="19.776"/>
      </g>
    </g>
  </g>
  <g transform="matrix(0.290113, 0, 0, 0.359827, 23.659758, 25.715636)" style=""/>
  <g transform="matrix(0.290113, 0, 0, 0.359827, 23.659758, 25.715636)" style=""/>
  <g transform="matrix(0.290113, 0, 0, 0.359827, 23.659758, 25.715636)" style=""/>
  <g transform="matrix(0.290113, 0, 0, 0.359827, 23.659758, 25.715636)" style=""/>
  <g transform="matrix(0.290113, 0, 0, 0.359827, 23.659758, 25.715636)" style=""/>
  <g transform="matrix(0.290113, 0, 0, 0.359827, 23.659758, 25.715636)" style=""/>
  <g transform="matrix(0.290113, 0, 0, 0.359827, 23.659758, 25.715636)" style=""/>
  <g transform="matrix(0.290113, 0, 0, 0.359827, 23.659758, 25.715636)" style=""/>
  <g transform="matrix(0.290113, 0, 0, 0.359827, 23.659758, 25.715636)" style=""/>
  <g transform="matrix(0.290113, 0, 0, 0.359827, 23.659758, 25.715636)" style=""/>
  <g transform="matrix(0.290113, 0, 0, 0.359827, 23.659758, 25.715636)" style=""/>
  <g transform="matrix(0.290113, 0, 0, 0.359827, 23.659758, 25.715636)" style=""/>
  <g transform="matrix(0.290113, 0, 0, 0.359827, 23.659758, 25.715636)" style=""/>
  <g transform="matrix(0.290113, 0, 0, 0.359827, 23.659758, 25.715636)" style=""/>
  <g transform="matrix(0.290113, 0, 0, 0.359827, 23.659758, 25.715636)" style=""/>
  <path d="M 47.124 148.19 L 16.44 148.19 C 10.558 148.19 5.772 153.298 5.772 159.577 L 5.772 177.898 C 5.772 184.177 10.558 189.286 16.44 189.286 L 18.023 189.286 L 21.734 194.31 C 22.024 194.701 22.464 194.93 22.931 194.93 C 23.398 194.93 23.839 194.701 24.128 194.31 L 27.838 189.286 L 47.124 189.286 C 53.007 189.286 57.791 184.177 57.791 177.898 L 57.791 159.577 C 57.791 153.298 53.007 148.19 47.124 148.19 Z M 34.449 173.212 L 34.449 186.032 L 29.116 186.032 L 29.116 173.212 C 29.116 172.314 28.434 171.585 27.592 171.585 L 8.821 171.585 L 8.821 165.894 L 27.592 165.894 C 28.434 165.894 29.116 165.166 29.116 164.267 L 29.116 151.443 L 34.449 151.443 L 34.449 164.267 C 34.449 165.166 35.131 165.894 35.972 165.894 L 54.743 165.894 L 54.743 171.585 L 35.972 171.585 C 35.131 171.585 34.449 172.314 34.449 173.212 Z M 37.496 151.443 L 45.832 151.443 L 37.496 160.34 Z M 26.068 160.34 L 17.733 151.443 L 26.068 151.443 Z M 37.496 177.14 L 45.827 186.032 L 37.496 186.032 Z M 54.743 159.577 L 54.743 162.641 L 39.651 162.641 L 49.695 151.921 C 52.635 153.049 54.743 156.055 54.743 159.577 Z M 13.869 151.921 L 23.913 162.641 L 8.821 162.641 L 8.821 159.577 C 8.821 156.055 10.93 153.049 13.869 151.921 Z M 8.821 177.898 L 8.821 174.84 L 23.913 174.84 L 13.873 185.556 C 10.931 184.428 8.821 181.422 8.821 177.898 Z M 25.902 186.652 L 22.931 190.675 L 19.96 186.652 C 19.67 186.26 19.23 186.032 18.763 186.032 L 17.737 186.032 L 26.068 177.14 L 26.068 186.465 C 26.009 186.522 25.952 186.583 25.902 186.652 Z M 49.692 185.556 L 39.651 174.84 L 54.743 174.84 L 54.743 177.898 C 54.743 181.422 52.633 184.428 49.692 185.556 Z M 49.692 185.556" style=""/>
  <g transform="matrix(0.117712, 0, 0, 0.102205, 298.410252, 166.377963)" style="">
    <path d="m384.747 32.562c-1.772-1.329-44.386-32.562-128.749-32.562-6.047 0-12.097.164-17.982.489-4.136.228-7.304 3.766-7.075 7.901.227 4.135 3.754 7.296 7.901 7.075 5.611-.308 11.384-.465 17.156-.465 66.832 0 106.052 20.98 116.749 27.594v35.038h-233.498v-35.043c7.771-4.819 30.512-17.201 67.759-23.578 4.083-.699 6.826-4.575 6.127-8.658-.699-4.082-4.577-6.827-8.658-6.127-50.533 8.651-76.161 27.537-77.228 28.337-1.889 1.417-3 3.64-3 6v77.64c0 4.143 3.357 7.5 7.5 7.5h8.031v342.231h-8.031c-4.143 0-7.5 3.357-7.5 7.5v31.062c0 4.143 3.357 7.5 7.5 7.5h248.498c4.143 0 7.5-3.357 7.5-7.5v-31.062c0-4.143-3.357-7.5-7.5-7.5h-8.031v-209.124c0-4.143-3.357-7.5-7.5-7.5s-7.5 3.357-7.5 7.5v209.124h-202.436v-342.232h202.436v100.422c0 4.143 3.357 7.5 7.5 7.5s7.5-3.357 7.5-7.5v-100.422h8.031c4.143 0 7.5-3.357 7.5-7.5v-77.64c0-2.36-1.111-4.583-3-6zm-12 448.372v16.062h-233.498v-16.062zm0-372.232h-233.498v-16.07h233.498z"/>
    <path d="m341.153 147.28c0-4.143-3.357-7.5-7.5-7.5h-155.31c-4.143 0-7.5 3.357-7.5 7.5v232.967c0 4.143 3.357 7.5 7.5 7.5h155.311c4.143 0 7.5-3.357 7.5-7.5v-232.967zm-103.54 178.873v-31.593h36.77v31.593zm36.77 15v31.594h-36.77v-31.594zm0-139.779v31.593h-36.77v-31.593zm-36.77-15v-31.594h36.77v31.594zm0 61.593h36.77v31.594h-36.77zm-15 31.594h-36.771v-31.594h36.771zm66.77-31.594h36.771v31.594h-36.771zm36.77-15h-36.771v-31.593h36.771zm-103.54 0h-36.771v-31.593h36.771zm-36.77 61.594h36.771v31.593h-36.771zm103.54 0h36.771v31.593h-36.771zm36.77-108.187h-36.771v-31.594h36.771zm-103.54-31.594v31.594h-36.771v-31.594zm-36.77 186.373h36.771v31.594h-36.771zm103.54 31.594v-31.594h36.771v31.594z"/>
    <path d="m272.342 434.855c-4.143 0-7.5 3.357-7.5 7.5s3.357 7.5 7.5 7.5h61.312c4.143 0 7.5-3.357 7.5-7.5v-31.062c0-4.143-3.357-7.5-7.5-7.5h-155.311c-4.143 0-7.5 3.357-7.5 7.5v31.062c0 4.143 3.357 7.5 7.5 7.5h61.312c4.143 0 7.5-3.357 7.5-7.5s-3.357-7.5-7.5-7.5h-53.812v-16.062h140.311v16.062z"/>
    <path d="m186.374 50.668c0 4.143 3.357 7.5 7.5 7.5h124.248c4.143 0 7.5-3.357 7.5-7.5s-3.357-7.5-7.5-7.5h-124.248c-4.143 0-7.5 3.357-7.5 7.5z"/>
  </g>
</svg>