<svg height="512" viewBox="0 0 192 192" width="512" xmlns="http://www.w3.org/2000/svg"><g id="_03-speech" data-name="03-speech"><g id="Glyph"><path d="m176.9 113.275a64 64 0 1 0 -112.892-42.292l-7.769 31.077a8 8 0 0 0 4.183 9.095l11.578 5.789v27.056a8 8 0 0 0 8 8h25.441l6.714 33.569a8.081 8.081 0 0 0 9.785 6.192l64-16a8.078 8.078 0 0 0 5.76-9.929z"/><path d="m16 128a32.089 32.089 0 0 1 18.764-29.132l-6.63-14.562a48 48 0 0 0 0 87.388l6.63-14.562a32.089 32.089 0 0 1 -18.764-29.132z"/><path d="m44.7 120.725-6.63-14.561a23.98 23.98 0 0 0 0 43.672l6.63-14.561a7.981 7.981 0 0 1 0-14.55z"/></g></g></svg>